<svg xmlns="http://www.w3.org/2000/svg" xmlns:xlink="http://www.w3.org/1999/xlink" width="1366" zoomAndPan="magnify" viewBox="0 0 1024.5 576" height="768" preserveAspectRatio="xMidYMid meet" version="1.0"><defs><clipPath id="099dffee13"><path d="M 397.050781 172.941406 L 627.300781 172.941406 L 627.300781 403.191406 L 397.050781 403.191406 Z M 397.050781 172.941406 " clip-rule="nonzero"/></clipPath></defs><g clip-path="url(#099dffee13)"><path fill="#010101" d="M 512.175781 172.941406 C 448.695312 172.941406 397.050781 224.585938 397.050781 288.066406 C 397.050781 351.546875 448.695312 403.191406 512.175781 403.191406 C 575.65625 403.191406 627.300781 351.546875 627.300781 288.066406 C 627.300781 224.585938 575.65625 172.941406 512.175781 172.941406 Z M 512.175781 387.839844 C 457.160156 387.839844 412.398438 343.082031 412.398438 288.066406 C 412.398438 233.050781 457.160156 188.289062 512.175781 188.289062 C 567.191406 188.289062 611.949219 233.050781 611.949219 288.066406 C 611.949219 343.082031 567.191406 387.839844 512.175781 387.839844 Z M 512.175781 387.839844 " fill-opacity="1" fill-rule="nonzero"/></g><path fill="#010101" d="M 500.320312 236.847656 C 497.324219 233.851562 492.464844 233.851562 489.464844 236.847656 C 486.46875 239.84375 486.46875 244.707031 489.464844 247.703125 L 529.828125 288.066406 L 489.464844 328.429688 C 486.46875 331.425781 486.46875 336.289062 489.464844 339.28125 C 490.964844 340.78125 492.929688 341.53125 494.894531 341.53125 C 496.859375 341.53125 498.824219 340.78125 500.324219 339.28125 L 546.113281 293.492188 C 549.109375 290.496094 549.109375 285.636719 546.113281 282.636719 Z M 500.320312 236.847656 " fill-opacity="1" fill-rule="nonzero"/></svg>