<svg xmlns="http://www.w3.org/2000/svg" xmlns:xlink="http://www.w3.org/1999/xlink" width="1366" zoomAndPan="magnify" viewBox="0 0 1024.5 576" height="768" preserveAspectRatio="xMidYMid meet" version="1.0"><defs><clipPath id="3ba85dd154"><path d="M 457.816406 173 L 566.566406 173 L 566.566406 403 L 457.816406 403 Z M 457.816406 173 " clip-rule="nonzero"/></clipPath></defs><g clip-path="url(#3ba85dd154)"><path fill="#ffffff" d="M 541.480469 211.132812 L 566.566406 211.132812 L 566.566406 173.292969 L 534.53125 173.292969 L 534.53125 173.4375 C 492.410156 174.980469 483.726562 198.582031 483.003906 223.535156 L 482.90625 223.535156 L 482.90625 249.792969 L 457.816406 249.792969 L 457.816406 287.679688 L 482.90625 287.679688 L 482.90625 402.839844 L 527.921875 402.839844 L 527.921875 287.679688 L 560.199219 287.679688 L 566.566406 249.792969 L 527.921875 249.792969 L 527.921875 226.285156 C 527.921875 217.9375 533.519531 211.132812 541.480469 211.132812 Z M 541.480469 211.132812 " fill-opacity="1" fill-rule="nonzero"/></g></svg>