<svg xmlns="http://www.w3.org/2000/svg" xmlns:xlink="http://www.w3.org/1999/xlink" width="1366" zoomAndPan="magnify" viewBox="0 0 1024.5 576" height="768" preserveAspectRatio="xMidYMid meet" version="1.0"><defs><clipPath id="14cdd3c9f8"><path d="M 391.964844 194.546875 L 600.464844 194.546875 L 600.464844 403.046875 L 391.964844 403.046875 Z M 391.964844 194.546875 " clip-rule="nonzero"/></clipPath></defs><g clip-path="url(#14cdd3c9f8)"><path fill="#ffffff" d="M 581.722656 348.117188 C 581.722656 368.074219 565.492188 384.304688 545.539062 384.304688 L 446.894531 384.304688 C 426.941406 384.304688 410.707031 368.074219 410.707031 348.117188 L 410.707031 249.476562 C 410.707031 229.519531 426.941406 213.289062 446.894531 213.289062 L 545.539062 213.289062 C 565.492188 213.289062 581.726562 229.519531 581.726562 249.476562 L 581.726562 348.117188 Z M 545.539062 194.546875 L 446.894531 194.546875 C 416.605469 194.546875 391.964844 219.1875 391.964844 249.476562 L 391.964844 348.121094 C 391.964844 378.40625 416.605469 403.046875 446.894531 403.046875 L 545.539062 403.046875 C 575.824219 403.046875 600.464844 378.40625 600.464844 348.117188 L 600.464844 249.476562 C 600.464844 219.1875 575.824219 194.546875 545.539062 194.546875 " fill-opacity="1" fill-rule="nonzero"/></g><path fill="#ffffff" d="M 496.214844 332.625 C 477.5625 332.625 462.386719 317.453125 462.386719 298.796875 C 462.386719 280.144531 477.5625 264.96875 496.214844 264.96875 C 514.871094 264.96875 530.046875 280.144531 530.046875 298.796875 C 530.046875 317.453125 514.871094 332.625 496.214844 332.625 Z M 496.214844 246.226562 C 467.226562 246.226562 443.644531 269.808594 443.644531 298.796875 C 443.644531 327.785156 467.226562 351.367188 496.214844 351.367188 C 525.203125 351.367188 548.789062 327.785156 548.789062 298.796875 C 548.789062 269.808594 525.203125 246.226562 496.214844 246.226562 " fill-opacity="1" fill-rule="nonzero"/><path fill="#ffffff" d="M 551.101562 233.367188 C 556.921875 233.367188 561.644531 238.089844 561.644531 243.910156 C 561.644531 249.734375 556.921875 254.453125 551.101562 254.453125 C 545.28125 254.453125 540.558594 249.734375 540.558594 243.910156 C 540.558594 238.089844 545.28125 233.367188 551.101562 233.367188 " fill-opacity="1" fill-rule="nonzero"/></svg>