<svg xmlns="http://www.w3.org/2000/svg" xmlns:xlink="http://www.w3.org/1999/xlink" width="1366" zoomAndPan="magnify" viewBox="0 0 1024.5 576" height="768" preserveAspectRatio="xMidYMid meet" version="1.0"><defs><clipPath id="8481ab0a51"><path d="M 397.050781 172.941406 L 627.300781 172.941406 L 627.300781 403.191406 L 397.050781 403.191406 Z M 397.050781 172.941406 " clip-rule="nonzero"/></clipPath></defs><g clip-path="url(#8481ab0a51)"><path fill="#ffffff" d="M 512.175781 172.9375 C 575.757812 172.9375 627.304688 224.484375 627.304688 288.066406 C 627.304688 351.648438 575.757812 403.195312 512.175781 403.195312 C 448.59375 403.195312 397.046875 351.648438 397.046875 288.066406 C 397.046875 224.484375 448.59375 172.9375 512.175781 172.9375 Z M 464.730469 337.605469 L 480.957031 337.605469 L 480.957031 273.324219 L 464.730469 273.324219 Z M 515.394531 303.730469 C 515.394531 293.589844 520.175781 285.460938 531.179688 285.460938 C 542.042969 285.460938 545.5625 294.21875 545.5625 303.730469 L 545.5625 337.617188 L 561.6875 337.617188 L 561.6875 296.199219 C 561.6875 281.488281 554.5625 271.199219 539.023438 271.199219 C 531.96875 271.199219 523.824219 274.898438 520.375 281.316406 L 515.394531 290.398438 L 515.394531 273.324219 L 500.042969 273.324219 L 500.042969 337.605469 L 515.394531 337.605469 Z M 520.710938 303.730469 L 520.710938 342.917969 L 494.730469 342.917969 L 494.730469 268.007812 L 520.710938 268.007812 L 520.710938 272.792969 C 525.839844 268.199219 532.136719 265.886719 539.023438 265.886719 C 557.496094 265.886719 567.003906 278.546875 567.003906 296.199219 L 567.003906 342.90625 L 540.246094 342.910156 L 540.246094 303.730469 C 540.246094 297.34375 538.839844 290.773438 531.179688 290.773438 C 523.1875 290.773438 520.710938 296.585938 520.710938 303.730469 Z M 472.742188 258.898438 C 478.367188 258.898438 482.824219 254.300781 482.824219 248.710938 C 482.824219 243.113281 478.367188 238.523438 472.742188 238.523438 C 467.121094 238.523438 462.660156 243.113281 462.660156 248.710938 C 462.660156 254.300781 467.113281 258.898438 472.742188 258.898438 Z M 472.742188 264.210938 C 464.207031 264.210938 457.347656 257.210938 457.347656 248.710938 C 457.347656 240.207031 464.207031 233.210938 472.742188 233.210938 C 481.273438 233.210938 488.136719 240.207031 488.136719 248.710938 C 488.136719 257.207031 481.273438 264.210938 472.742188 264.210938 Z M 459.417969 342.917969 L 459.417969 268.007812 L 486.269531 268.007812 L 486.269531 342.917969 Z M 512.175781 178.253906 C 451.527344 178.253906 402.359375 227.417969 402.359375 288.066406 C 402.359375 348.714844 451.527344 397.878906 512.175781 397.878906 C 572.824219 397.878906 621.992188 348.714844 621.992188 288.066406 C 621.992188 227.417969 572.824219 178.253906 512.175781 178.253906 Z M 512.175781 178.253906 " fill-opacity="1" fill-rule="nonzero"/></g></svg>