<svg xmlns="http://www.w3.org/2000/svg" xmlns:xlink="http://www.w3.org/1999/xlink" width="1366" zoomAndPan="magnify" viewBox="0 0 1024.5 576" height="768" preserveAspectRatio="xMidYMid meet" version="1.0"><defs><clipPath id="d873a9bc8d"><path d="M 387.199219 177 L 606 177 L 606 396 L 387.199219 396 Z M 387.199219 177 " clip-rule="nonzero"/></clipPath></defs><g clip-path="url(#d873a9bc8d)"><path fill="#ad2c2b" d="M 596.953125 244.359375 C 595.582031 241.132812 594.058594 237.976562 592.386719 234.898438 C 590.710938 231.816406 588.890625 228.820312 586.929688 225.914062 C 584.964844 223.007812 582.867188 220.203125 580.632812 217.496094 C 578.402344 214.792969 576.042969 212.199219 573.558594 209.71875 C 571.078125 207.242188 568.480469 204.886719 565.769531 202.65625 C 563.058594 200.429688 560.25 198.332031 557.335938 196.375 C 554.425781 194.414062 551.425781 192.597656 548.339844 190.925781 C 545.253906 189.253906 542.09375 187.734375 538.859375 186.367188 C 525.398438 180.683594 511.101562 177.800781 496.367188 177.800781 C 481.628906 177.800781 467.328125 180.683594 453.871094 186.367188 C 450.636719 187.734375 447.476562 189.253906 444.390625 190.925781 C 441.304688 192.597656 438.304688 194.414062 435.394531 196.375 C 432.480469 198.332031 429.671875 200.429688 426.960938 202.65625 C 424.25 204.886719 421.65625 207.242188 419.171875 209.71875 C 416.6875 212.199219 414.332031 214.792969 412.097656 217.496094 C 409.863281 220.203125 407.765625 223.007812 405.800781 225.914062 C 403.839844 228.820312 402.019531 231.816406 400.347656 234.898438 C 398.671875 237.976562 397.148438 241.132812 395.777344 244.359375 C 390.085938 257.796875 387.199219 272.070312 387.199219 286.78125 C 387.199219 301.496094 390.085938 315.765625 395.777344 329.203125 C 397.148438 332.433594 398.671875 335.585938 400.347656 338.667969 C 402.019531 341.75 403.839844 344.742188 405.800781 347.648438 C 407.765625 350.558594 409.863281 353.363281 412.097656 356.066406 C 414.332031 358.773438 416.6875 361.367188 419.171875 363.84375 C 421.65625 366.324219 424.25 368.675781 426.960938 370.90625 C 429.671875 373.136719 432.480469 375.230469 435.394531 377.191406 C 438.304688 379.152344 441.304688 380.964844 444.390625 382.636719 C 447.476562 384.308594 450.636719 385.832031 453.871094 387.199219 C 467.332031 392.882812 481.628906 395.765625 496.367188 395.765625 C 511.101562 395.765625 525.398438 392.882812 538.859375 387.199219 C 542.09375 385.832031 545.253906 384.308594 548.339844 382.636719 C 551.425781 380.964844 554.425781 379.148438 557.335938 377.191406 C 560.25 375.230469 563.058594 373.136719 565.769531 370.90625 C 568.480469 368.675781 571.078125 366.320312 573.558594 363.84375 C 576.042969 361.363281 578.402344 358.773438 580.632812 356.066406 C 582.867188 353.359375 584.964844 350.554688 586.929688 347.648438 C 588.890625 344.742188 590.710938 341.746094 592.386719 338.664062 C 594.058594 335.582031 595.582031 332.429688 596.953125 329.199219 C 602.648438 315.761719 605.535156 301.492188 605.535156 286.777344 C 605.535156 272.066406 602.644531 257.796875 596.953125 244.359375 Z M 496.367188 387.214844 C 440.898438 387.214844 395.769531 342.164062 395.769531 286.789062 C 395.769531 231.410156 440.894531 186.359375 496.367188 186.359375 C 551.835938 186.359375 596.964844 231.410156 596.964844 286.789062 C 596.964844 342.164062 551.835938 387.207031 496.363281 387.207031 Z M 496.367188 387.214844 " fill-opacity="1" fill-rule="nonzero"/></g><path fill="#411361" d="M 567.492188 256.785156 C 566.875 255.332031 566.21875 253.894531 565.515625 252.476562 C 564.8125 251.0625 564.066406 249.667969 563.28125 248.296875 C 562.492188 246.925781 561.664062 245.582031 560.792969 244.261719 C 559.921875 242.941406 559.011719 241.652344 558.0625 240.386719 C 557.109375 239.125 556.125 237.890625 555.097656 236.6875 C 554.070312 235.484375 553.011719 234.3125 551.914062 233.171875 C 550.816406 232.035156 549.683594 230.929688 548.515625 229.863281 C 547.351562 228.792969 546.15625 227.757812 544.925781 226.761719 C 543.695312 225.765625 542.4375 224.808594 541.152344 223.890625 C 539.863281 222.972656 538.546875 222.09375 537.207031 221.253906 C 535.863281 220.417969 534.5 219.621094 533.109375 218.863281 C 531.71875 218.109375 530.304688 217.398438 528.871094 216.730469 C 527.4375 216.0625 525.980469 215.4375 524.507812 214.859375 C 523.035156 214.28125 521.546875 213.746094 520.042969 213.257812 C 518.535156 212.769531 517.019531 212.328125 515.484375 211.933594 C 513.953125 211.535156 512.410156 211.1875 510.855469 210.886719 C 509.300781 210.585938 507.738281 210.335938 506.167969 210.128906 C 504.601562 209.925781 503.027344 209.765625 501.445312 209.660156 C 499.867188 209.550781 498.285156 209.488281 496.703125 209.476562 C 495.121094 209.464844 493.539062 209.5 491.957031 209.585938 C 490.378906 209.671875 488.800781 209.804688 487.230469 209.984375 C 485.65625 210.167969 484.089844 210.394531 482.53125 210.671875 C 480.972656 210.949219 479.425781 211.273438 477.886719 211.648438 C 476.347656 212.019531 474.824219 212.4375 473.308594 212.902344 C 471.796875 213.367188 470.300781 213.878906 468.820312 214.4375 C 467.339844 214.992188 465.875 215.59375 464.429688 216.242188 C 462.988281 216.886719 461.5625 217.578125 460.160156 218.3125 C 458.757812 219.046875 457.382812 219.820312 456.027344 220.640625 C 454.671875 221.457031 453.34375 222.316406 452.042969 223.214844 C 450.742188 224.113281 449.46875 225.050781 448.222656 226.03125 C 446.980469 227.007812 445.769531 228.019531 444.585938 229.074219 C 443.40625 230.125 442.257812 231.210938 441.140625 232.332031 C 440.027344 233.453125 438.945312 234.609375 437.902344 235.796875 C 436.859375 236.984375 435.851562 238.203125 434.882812 239.453125 C 433.914062 240.703125 432.984375 241.980469 432.09375 243.285156 C 431.203125 244.59375 430.351562 245.925781 429.542969 247.285156 C 428.734375 248.640625 427.96875 250.023438 427.246094 251.429688 C 426.519531 252.835938 425.839844 254.261719 425.203125 255.707031 C 424.566406 257.152344 423.976562 258.621094 423.429688 260.101562 C 422.882812 261.585938 422.382812 263.082031 421.929688 264.597656 C 421.476562 266.113281 421.066406 267.636719 420.707031 269.175781 C 420.347656 270.714844 420.035156 272.261719 419.769531 273.820312 C 419.503906 275.378906 419.285156 276.945312 419.117188 278.515625 C 418.945312 280.085938 418.824219 281.660156 418.753906 283.238281 C 418.679688 284.816406 418.65625 286.398438 418.679688 287.976562 C 418.703125 289.558594 418.777344 291.136719 418.898438 292.710938 C 419.019531 294.285156 419.1875 295.855469 419.40625 297.421875 C 419.625 298.988281 419.890625 300.542969 420.203125 302.09375 C 420.515625 303.640625 420.878906 305.179688 421.285156 306.707031 C 421.691406 308.234375 422.148438 309.746094 422.648438 311.246094 C 423.148438 312.746094 423.695312 314.226562 424.289062 315.691406 C 424.878906 317.160156 425.515625 318.605469 426.195312 320.03125 C 426.875 321.457031 427.601562 322.863281 428.367188 324.246094 C 429.132812 325.628906 429.941406 326.984375 430.792969 328.316406 C 431.644531 329.652344 432.535156 330.957031 433.464844 332.234375 C 434.394531 333.511719 435.363281 334.761719 436.371094 335.980469 C 437.378906 337.199219 438.421875 338.386719 439.5 339.542969 C 440.582031 340.699219 441.695312 341.820312 442.84375 342.90625 C 443.996094 343.992188 445.175781 345.042969 446.390625 346.058594 C 447.601562 347.074219 448.847656 348.050781 450.121094 348.988281 C 451.394531 349.925781 452.695312 350.824219 454.023438 351.683594 C 455.351562 352.542969 456.707031 353.359375 458.085938 354.136719 C 459.464844 354.914062 460.863281 355.644531 462.289062 356.335938 C 463.710938 357.027344 465.15625 357.671875 466.621094 358.273438 C 468.082031 358.875 469.5625 359.433594 471.0625 359.941406 C 472.558594 360.453125 474.070312 360.917969 475.597656 361.339844 C 477.125 361.757812 478.664062 362.128906 480.210938 362.453125 C 481.761719 362.777344 483.320312 363.054688 484.882812 363.285156 C 486.449219 363.511719 488.023438 363.695312 489.601562 363.828125 C 491.175781 363.960938 492.757812 364.042969 494.339844 364.082031 C 495.921875 364.117188 497.503906 364.105469 499.085938 364.042969 C 500.667969 363.984375 502.246094 363.875 503.820312 363.71875 C 505.394531 363.558594 506.964844 363.355469 508.527344 363.101562 C 510.089844 362.847656 511.644531 362.546875 513.1875 362.199219 C 514.730469 361.851562 516.261719 361.453125 517.78125 361.011719 C 519.300781 360.570312 520.808594 360.082031 522.296875 359.546875 C 523.785156 359.015625 525.257812 358.433594 526.710938 357.8125 C 528.167969 357.1875 529.601562 356.519531 531.011719 355.804688 C 532.425781 355.09375 533.816406 354.339844 535.183594 353.542969 C 536.550781 352.746094 537.890625 351.90625 539.207031 351.027344 C 540.523438 350.148438 541.808594 349.230469 543.066406 348.269531 C 544.328125 347.3125 545.554688 346.316406 546.753906 345.285156 C 547.949219 344.25 549.113281 343.183594 550.246094 342.078125 C 551.378906 340.972656 552.476562 339.835938 553.539062 338.664062 C 554.601562 337.492188 555.625 336.289062 556.613281 335.054688 C 557.601562 333.820312 558.550781 332.554688 559.460938 331.265625 C 560.371094 329.972656 561.242188 328.652344 562.070312 327.304688 C 562.902344 325.960938 563.6875 324.589844 564.433594 323.195312 C 565.179688 321.800781 565.882812 320.386719 566.539062 318.949219 C 567.199219 317.511719 567.8125 316.058594 568.382812 314.582031 C 568.949219 313.109375 569.472656 311.617188 569.953125 310.109375 C 570.429688 308.605469 570.859375 307.085938 571.246094 305.550781 C 571.628906 304.019531 571.964844 302.476562 572.253906 300.921875 C 572.542969 299.367188 572.785156 297.808594 572.980469 296.238281 C 573.171875 294.667969 573.316406 293.097656 573.414062 291.519531 C 573.511719 289.941406 573.558594 288.363281 573.558594 286.785156 C 573.566406 281.632812 573.058594 276.53125 572.039062 271.480469 C 571.015625 266.429688 569.5 261.53125 567.492188 256.785156 Z M 567.492188 256.785156 " fill-opacity="1" fill-rule="nonzero"/><path fill="#ffffff" d="M 452.101562 271.453125 L 473.511719 271.453125 L 473.511719 276.375 L 460.167969 301.136719 L 452.777344 301.136719 L 466.074219 277.089844 L 452.101562 277.089844 Z M 452.101562 271.453125 " fill-opacity="1" fill-rule="nonzero"/><path fill="#ffffff" d="M 503.269531 292.316406 C 502.671875 294.109375 501.773438 295.734375 500.570312 297.191406 C 499.410156 298.585938 498.015625 299.675781 496.386719 300.464844 C 494.757812 301.253906 492.953125 301.652344 490.96875 301.652344 C 488.988281 301.652344 487.183594 301.265625 485.554688 300.484375 C 483.925781 299.714844 482.539062 298.632812 481.390625 297.242188 C 480.203125 295.789062 479.320312 294.167969 478.738281 292.386719 C 478.109375 290.417969 477.800781 288.40625 477.800781 286.339844 C 477.804688 284.277344 478.125 282.265625 478.757812 280.300781 C 479.347656 278.496094 480.246094 276.863281 481.453125 275.402344 C 482.613281 274.011719 484.007812 272.921875 485.640625 272.136719 C 487.269531 271.34375 489.074219 270.949219 491.054688 270.949219 C 493.039062 270.949219 494.84375 271.335938 496.472656 272.117188 C 498.101562 272.886719 499.488281 273.96875 500.636719 275.359375 C 501.828125 276.820312 502.710938 278.445312 503.292969 280.238281 C 503.929688 282.195312 504.242188 284.199219 504.226562 286.257812 C 504.242188 288.332031 503.925781 290.351562 503.269531 292.316406 Z M 497.042969 282.5625 C 496.769531 281.488281 496.332031 280.484375 495.726562 279.550781 C 495.191406 278.730469 494.503906 278.066406 493.664062 277.558594 C 492.832031 277.082031 491.9375 276.839844 490.980469 276.835938 C 490.019531 276.835938 489.125 277.066406 488.289062 277.539062 C 487.460938 278.035156 486.78125 278.683594 486.25 279.488281 C 485.644531 280.410156 485.210938 281.40625 484.957031 282.476562 C 484.648438 283.714844 484.5 284.976562 484.507812 286.25 C 484.5 287.53125 484.65625 288.789062 484.976562 290.027344 C 485.25 291.101562 485.6875 292.105469 486.292969 293.035156 C 486.828125 293.859375 487.515625 294.523438 488.355469 295.03125 C 489.1875 295.507812 490.082031 295.746094 491.042969 295.75 C 492 295.753906 492.898438 295.519531 493.730469 295.050781 C 494.5625 294.550781 495.242188 293.890625 495.769531 293.078125 C 496.371094 292.15625 496.800781 291.160156 497.066406 290.089844 C 497.375 288.855469 497.523438 287.605469 497.511719 286.332031 C 497.523438 285.054688 497.367188 283.796875 497.046875 282.5625 Z M 497.042969 282.5625 " fill-opacity="1" fill-rule="nonzero"/><path fill="#ffffff" d="M 522.339844 281.652344 C 522 282.554688 521.503906 283.363281 520.855469 284.074219 C 520.203125 284.777344 519.441406 285.324219 518.558594 285.707031 C 517.617188 286.117188 516.632812 286.3125 515.609375 286.300781 C 514.878906 286.3125 514.167969 286.214844 513.472656 286.003906 C 512.777344 285.792969 512.128906 285.480469 511.53125 285.066406 C 510.933594 284.65625 510.414062 284.160156 509.972656 283.585938 C 509.527344 283.011719 509.183594 282.378906 508.9375 281.695312 C 508.589844 280.746094 508.421875 279.761719 508.429688 278.75 C 508.421875 277.726562 508.601562 276.738281 508.960938 275.78125 C 509.296875 274.871094 509.792969 274.058594 510.445312 273.34375 C 511.097656 272.636719 511.863281 272.09375 512.742188 271.710938 C 513.683594 271.300781 514.667969 271.105469 515.695312 271.117188 C 516.421875 271.105469 517.132812 271.203125 517.828125 271.414062 C 518.523438 271.625 519.171875 271.9375 519.769531 272.351562 C 520.367188 272.761719 520.886719 273.257812 521.332031 273.832031 C 521.773438 274.410156 522.117188 275.039062 522.363281 275.722656 C 522.710938 276.671875 522.878906 277.65625 522.871094 278.667969 C 522.882812 279.695312 522.703125 280.691406 522.339844 281.652344 Z M 516.457031 301.136719 L 511.402344 301.136719 L 533.109375 271.453125 L 538.164062 271.453125 Z M 517.644531 276.097656 C 517.136719 275.347656 516.457031 274.972656 515.609375 274.972656 C 514.703125 274.972656 514.023438 275.339844 513.570312 276.074219 C 513.117188 276.808594 512.890625 277.671875 512.890625 278.660156 C 512.890625 279.679688 513.144531 280.5625 513.652344 281.3125 C 514.164062 282.0625 514.84375 282.4375 515.691406 282.4375 C 516.597656 282.4375 517.277344 282.070312 517.730469 281.335938 C 518.183594 280.601562 518.410156 279.738281 518.410156 278.746094 C 518.410156 277.730469 518.15625 276.847656 517.644531 276.09375 Z M 540.605469 296.835938 C 540.265625 297.734375 539.769531 298.539062 539.121094 299.25 C 538.46875 299.957031 537.703125 300.5 536.824219 300.882812 C 535.882812 301.292969 534.898438 301.492188 533.871094 301.476562 C 533.144531 301.492188 532.433594 301.390625 531.738281 301.179688 C 531.042969 300.96875 530.394531 300.65625 529.796875 300.246094 C 529.199219 299.832031 528.679688 299.339844 528.234375 298.761719 C 527.792969 298.1875 527.449219 297.558594 527.203125 296.875 C 526.855469 295.921875 526.6875 294.9375 526.695312 293.925781 C 526.6875 292.902344 526.863281 291.914062 527.226562 290.957031 C 527.5625 290.050781 528.058594 289.234375 528.710938 288.519531 C 529.363281 287.816406 530.125 287.273438 531.003906 286.886719 C 531.949219 286.480469 532.933594 286.28125 533.957031 286.292969 C 534.6875 286.28125 535.398438 286.382812 536.09375 286.59375 C 536.789062 286.800781 537.4375 287.113281 538.035156 287.527344 C 538.632812 287.941406 539.152344 288.433594 539.59375 289.011719 C 540.039062 289.585938 540.382812 290.214844 540.628906 290.898438 C 540.976562 291.851562 541.144531 292.832031 541.136719 293.84375 C 541.148438 294.875 540.96875 295.871094 540.609375 296.832031 Z M 535.914062 291.277344 C 535.402344 290.527344 534.722656 290.152344 533.875 290.152344 C 532.96875 290.152344 532.289062 290.519531 531.835938 291.253906 C 531.382812 291.992188 531.15625 292.851562 531.15625 293.84375 C 531.15625 294.859375 531.410156 295.742188 531.917969 296.492188 C 532.429688 297.242188 533.109375 297.617188 533.957031 297.617188 C 534.863281 297.617188 535.542969 297.25 535.996094 296.515625 C 536.449219 295.78125 536.675781 294.917969 536.675781 293.929688 C 536.675781 292.910156 536.421875 292.027344 535.914062 291.277344 Z M 535.914062 291.277344 " fill-opacity="1" fill-rule="nonzero"/><path fill="#411361" d="M 553.339844 188.273438 C 546.34375 184.21875 539 180.957031 531.304688 178.476562 C 523.609375 175.996094 515.734375 174.359375 507.6875 173.566406 C 501.621094 172.960938 496.367188 177.742188 496.367188 183.832031 L 496.367188 183.925781 C 496.367188 184.558594 496.425781 185.191406 496.542969 185.816406 C 496.660156 186.441406 496.835938 187.050781 497.066406 187.644531 C 497.296875 188.234375 497.578125 188.804688 497.914062 189.34375 C 498.25 189.882812 498.632812 190.390625 499.0625 190.859375 C 499.488281 191.332031 499.957031 191.757812 500.464844 192.140625 C 500.972656 192.527344 501.511719 192.859375 502.082031 193.144531 C 502.652344 193.429688 503.242188 193.660156 503.855469 193.835938 C 504.46875 194.011719 505.089844 194.128906 505.726562 194.191406 C 515.046875 195.113281 524.023438 197.394531 532.648438 201.046875 C 534.296875 201.742188 535.925781 202.484375 537.53125 203.277344 C 539.136719 204.066406 540.71875 204.902344 542.273438 205.785156 C 543.832031 206.667969 545.363281 207.59375 546.867188 208.5625 C 548.371094 209.53125 549.84375 210.542969 551.289062 211.597656 C 552.738281 212.652344 554.148438 213.75 555.53125 214.882812 C 556.914062 216.019531 558.261719 217.195312 559.578125 218.410156 C 560.890625 219.621094 562.171875 220.871094 563.414062 222.160156 C 564.65625 223.445312 565.859375 224.769531 567.027344 226.125 C 568.191406 227.480469 569.316406 228.867188 570.402344 230.289062 C 571.488281 231.710938 572.53125 233.164062 573.535156 234.644531 C 574.539062 236.125 575.496094 237.632812 576.410156 239.167969 C 577.324219 240.707031 578.195312 242.265625 579.019531 243.851562 C 579.84375 245.441406 580.625 247.046875 581.355469 248.679688 C 582.089844 250.308594 582.773438 251.960938 583.410156 253.632812 C 584.046875 255.300781 584.632812 256.988281 585.171875 258.695312 C 585.710938 260.398438 586.203125 262.117188 586.644531 263.847656 C 587.082031 265.582031 587.472656 267.324219 587.8125 269.078125 C 588.152344 270.835938 588.441406 272.597656 588.679688 274.371094 C 588.914062 276.140625 589.101562 277.917969 589.238281 279.699219 C 589.371094 281.480469 589.457031 283.265625 589.488281 285.054688 C 589.519531 286.839844 589.5 288.628906 589.429688 290.414062 C 589.359375 292.199219 589.238281 293.980469 589.0625 295.761719 C 588.890625 297.539062 588.664062 299.3125 588.386719 301.078125 C 588.113281 302.84375 587.785156 304.601562 587.40625 306.347656 C 587.03125 308.09375 586.601562 309.828125 586.125 311.550781 C 585.648438 313.273438 585.121094 314.980469 584.542969 316.671875 C 583.96875 318.367188 583.34375 320.039062 582.667969 321.695312 C 581.996094 323.351562 581.277344 324.988281 580.507812 326.601562 C 579.742188 328.21875 578.929688 329.808594 578.070312 331.378906 C 577.210938 332.945312 576.308594 334.488281 575.359375 336.003906 C 574.410156 337.519531 573.417969 339.007812 572.386719 340.464844 C 571.351562 341.925781 570.277344 343.351562 569.160156 344.75 C 568.042969 346.148438 566.886719 347.511719 565.691406 348.84375 C 564.496094 350.171875 563.265625 351.46875 561.996094 352.726562 C 560.722656 353.988281 559.417969 355.210938 558.078125 356.394531 C 556.738281 357.578125 555.363281 358.726562 553.957031 359.832031 C 552.550781 360.9375 551.113281 362 549.644531 363.023438 C 548.175781 364.046875 546.679688 365.027344 545.15625 365.964844 C 543.632812 366.898438 542.082031 367.792969 540.503906 368.640625 C 538.929688 369.488281 537.328125 370.289062 535.707031 371.046875 C 534.085938 371.800781 532.441406 372.511719 530.777344 373.171875 C 529.117188 373.832031 527.433594 374.445312 525.734375 375.007812 C 524.039062 375.574219 522.324219 376.089844 520.59375 376.554688 C 518.867188 377.019531 517.125 377.4375 515.375 377.804688 C 513.621094 378.167969 511.859375 378.484375 510.089844 378.75 C 508.320312 379.011719 506.542969 379.226562 504.757812 379.386719 C 502.976562 379.550781 501.191406 379.660156 499.398438 379.722656 C 497.609375 379.78125 495.820312 379.789062 494.03125 379.746094 C 492.242188 379.703125 490.453125 379.605469 488.671875 379.460938 C 486.886719 379.316406 485.105469 379.117188 483.335938 378.867188 C 481.5625 378.621094 479.796875 378.320312 478.042969 377.972656 C 476.285156 377.621094 474.542969 377.21875 472.808594 376.769531 C 471.078125 376.320312 469.359375 375.820312 467.65625 375.269531 C 465.949219 374.722656 464.265625 374.125 462.59375 373.476562 C 460.925781 372.832031 459.277344 372.136719 457.648438 371.394531 C 456.019531 370.65625 454.410156 369.867188 452.828125 369.035156 C 451.246094 368.199219 449.6875 367.324219 448.152344 366.398438 C 446.621094 365.476562 445.113281 364.507812 443.636719 363.5 C 442.160156 362.488281 440.714844 361.4375 439.296875 360.34375 C 437.878906 359.253906 436.496094 358.121094 435.144531 356.949219 C 433.792969 355.773438 432.476562 354.5625 431.195312 353.316406 C 429.914062 352.066406 428.671875 350.785156 427.464844 349.464844 C 426.257812 348.144531 425.089844 346.789062 423.960938 345.402344 C 422.832031 344.015625 421.742188 342.597656 420.695312 341.148438 C 420.324219 340.632812 419.910156 340.152344 419.449219 339.714844 C 418.988281 339.277344 418.492188 338.882812 417.960938 338.535156 C 417.429688 338.1875 416.867188 337.890625 416.28125 337.644531 C 415.695312 337.398438 415.089844 337.210938 414.46875 337.074219 C 413.847656 336.941406 413.214844 336.867188 412.582031 336.847656 C 411.945312 336.828125 411.3125 336.867188 410.683594 336.96875 C 410.054688 337.066406 409.441406 337.21875 408.839844 337.429688 C 408.238281 337.644531 407.664062 337.90625 407.113281 338.222656 C 406.484375 338.585938 405.902344 339.007812 405.363281 339.492188 C 404.828125 339.976562 404.34375 340.511719 403.917969 341.09375 C 403.492188 341.679688 403.132812 342.300781 402.835938 342.960938 C 402.542969 343.621094 402.320312 344.304688 402.167969 345.011719 C 402.015625 345.71875 401.941406 346.433594 401.9375 347.15625 C 401.9375 347.878906 402.011719 348.59375 402.160156 349.300781 C 402.308594 350.007812 402.53125 350.695312 402.824219 351.355469 C 403.117188 352.015625 403.476562 352.640625 403.898438 353.226562 C 423.757812 380.6875 455.570312 398.988281 491.660156 400.460938 C 558.125 403.167969 612.945312 348.4375 610.238281 282.082031 C 608.597656 242.023438 586.109375 207.234375 553.339844 188.273438 Z M 553.339844 188.273438 " fill-opacity="1" fill-rule="nonzero"/></svg>