<svg xmlns="http://www.w3.org/2000/svg" xmlns:xlink="http://www.w3.org/1999/xlink" width="1366" zoomAndPan="magnify" viewBox="0 0 1024.5 576" height="768" preserveAspectRatio="xMidYMid meet" version="1.0"><defs><clipPath id="e1cba8c6b8"><path d="M 397.050781 173 L 625 173 L 625 401 L 397.050781 401 Z M 397.050781 173 " clip-rule="nonzero"/></clipPath></defs><path fill="#ad2c2b" d="M 611.277344 244.339844 C 609.910156 241.113281 608.390625 237.957031 606.71875 234.875 C 605.046875 231.796875 603.230469 228.800781 601.269531 225.894531 C 599.3125 222.988281 597.214844 220.183594 594.988281 217.476562 C 592.757812 214.773438 590.402344 212.179688 587.925781 209.703125 C 585.445312 207.222656 582.855469 204.867188 580.148438 202.640625 C 577.445312 200.410156 574.636719 198.316406 571.730469 196.355469 C 568.824219 194.394531 565.832031 192.578125 562.75 190.90625 C 559.667969 189.238281 556.515625 187.714844 553.285156 186.347656 C 539.847656 180.664062 525.578125 177.78125 510.867188 177.78125 C 496.15625 177.78125 481.882812 180.664062 468.445312 186.347656 C 465.21875 187.714844 462.066406 189.238281 458.984375 190.90625 C 455.902344 192.578125 452.910156 194.394531 450 196.355469 C 447.09375 198.316406 444.289062 200.410156 441.585938 202.640625 C 438.878906 204.867188 436.285156 207.222656 433.808594 209.703125 C 431.328125 212.179688 428.976562 214.773438 426.746094 217.476562 C 424.515625 220.183594 422.421875 222.988281 420.460938 225.894531 C 418.503906 228.800781 416.6875 231.796875 415.015625 234.875 C 413.34375 237.957031 411.824219 241.113281 410.453125 244.339844 C 404.769531 257.777344 401.890625 272.046875 401.890625 286.757812 C 401.890625 301.46875 404.773438 315.742188 410.453125 329.179688 C 411.824219 332.40625 413.34375 335.5625 415.015625 338.640625 C 416.6875 341.722656 418.503906 344.71875 420.460938 347.625 C 422.421875 350.53125 424.515625 353.335938 426.746094 356.042969 C 428.976562 358.746094 431.328125 361.339844 433.808594 363.816406 C 436.285156 366.296875 438.878906 368.648438 441.585938 370.878906 C 444.289062 373.109375 447.09375 375.203125 450 377.164062 C 452.910156 379.125 455.902344 380.9375 458.984375 382.609375 C 462.066406 384.28125 465.21875 385.800781 468.445312 387.171875 C 481.882812 392.855469 496.15625 395.734375 510.867188 395.734375 C 525.578125 395.734375 539.847656 392.851562 553.285156 387.171875 C 556.515625 385.800781 559.667969 384.28125 562.75 382.609375 C 565.832031 380.9375 568.824219 379.121094 571.730469 377.164062 C 574.636719 375.203125 577.445312 373.109375 580.148438 370.878906 C 582.855469 368.648438 585.445312 366.292969 587.925781 363.816406 C 590.402344 361.335938 592.757812 358.746094 594.988281 356.039062 C 597.21875 353.332031 599.3125 350.527344 601.269531 347.621094 C 603.230469 344.714844 605.046875 341.71875 606.71875 338.636719 C 608.390625 335.558594 609.910156 332.402344 611.277344 329.175781 C 616.960938 315.738281 619.84375 301.464844 619.84375 286.753906 C 619.84375 272.042969 616.960938 257.777344 611.277344 244.339844 Z M 510.867188 387.179688 C 455.496094 387.179688 410.445312 342.132812 410.445312 286.757812 C 410.445312 231.386719 455.496094 186.335938 510.867188 186.335938 C 566.234375 186.335938 611.289062 231.386719 611.289062 286.757812 C 611.289062 342.132812 566.234375 387.179688 510.867188 387.179688 Z M 510.867188 387.179688 " fill-opacity="1" fill-rule="nonzero"/><g clip-path="url(#e1cba8c6b8)"><path fill="#411361" d="M 567.738281 188.253906 C 560.757812 184.203125 553.425781 180.9375 545.742188 178.457031 C 538.0625 175.976562 530.203125 174.339844 522.171875 173.546875 C 516.113281 172.941406 510.867188 177.726562 510.867188 183.8125 L 510.867188 183.90625 C 510.867188 184.542969 510.925781 185.171875 511.042969 185.796875 C 511.164062 186.421875 511.335938 187.03125 511.566406 187.625 C 511.796875 188.214844 512.078125 188.785156 512.414062 189.324219 C 512.75 189.863281 513.128906 190.371094 513.558594 190.839844 C 513.984375 191.3125 514.453125 191.738281 514.960938 192.121094 C 515.46875 192.507812 516.003906 192.839844 516.574219 193.125 C 517.140625 193.410156 517.734375 193.640625 518.34375 193.816406 C 518.953125 193.992188 519.578125 194.109375 520.210938 194.171875 C 529.515625 195.09375 538.476562 197.375 547.085938 201.023438 C 548.574219 201.652344 550.046875 202.320312 551.503906 203.023438 C 552.957031 203.730469 554.394531 204.472656 555.808594 205.25 C 557.222656 206.03125 558.621094 206.847656 559.992188 207.699219 C 561.367188 208.550781 562.714844 209.4375 564.042969 210.359375 C 565.371094 211.28125 566.671875 212.238281 567.953125 213.226562 C 569.230469 214.21875 570.480469 215.242188 571.703125 216.296875 C 572.929688 217.351562 574.125 218.4375 575.292969 219.554688 C 576.460938 220.671875 577.597656 221.820312 578.707031 222.996094 C 579.8125 224.175781 580.890625 225.378906 581.933594 226.613281 C 582.980469 227.84375 583.992188 229.105469 584.972656 230.390625 C 585.953125 231.675781 586.898438 232.984375 587.808594 234.320312 C 588.722656 235.65625 589.597656 237.011719 590.4375 238.394531 C 591.277344 239.773438 592.082031 241.175781 592.851562 242.597656 C 593.617188 244.019531 594.347656 245.460938 595.042969 246.921875 C 595.734375 248.382812 596.386719 249.859375 597.003906 251.355469 C 597.621094 252.847656 598.195312 254.359375 598.734375 255.882812 C 599.269531 257.40625 599.769531 258.945312 600.226562 260.496094 C 600.683594 262.046875 601.097656 263.605469 601.476562 265.179688 C 601.851562 266.75 602.1875 268.332031 602.480469 269.921875 C 602.773438 271.511719 603.023438 273.105469 603.234375 274.707031 C 603.445312 276.3125 603.613281 277.917969 603.742188 279.53125 C 603.867188 281.140625 603.953125 282.753906 603.996094 284.371094 C 604.039062 285.984375 604.039062 287.601562 603.996094 289.21875 C 603.957031 290.832031 603.875 292.445312 603.75 294.058594 C 603.621094 295.671875 603.457031 297.277344 603.246094 298.878906 C 603.039062 300.484375 602.785156 302.078125 602.496094 303.667969 C 602.203125 305.257812 601.871094 306.839844 601.496094 308.410156 C 601.121094 309.984375 600.707031 311.546875 600.25 313.097656 C 599.792969 314.648438 599.296875 316.183594 598.761719 317.710938 C 598.226562 319.234375 597.652344 320.746094 597.035156 322.238281 C 596.421875 323.734375 595.769531 325.214844 595.078125 326.675781 C 594.386719 328.136719 593.65625 329.578125 592.890625 331 C 592.125 332.421875 591.320312 333.824219 590.484375 335.207031 C 589.644531 336.589844 588.769531 337.945312 587.859375 339.28125 C 586.949219 340.617188 586.003906 341.929688 585.023438 343.214844 C 584.046875 344.503906 583.035156 345.761719 581.992188 346.996094 C 580.945312 348.230469 579.871094 349.4375 578.765625 350.613281 C 577.65625 351.792969 576.519531 352.941406 575.355469 354.058594 C 574.1875 355.175781 572.992188 356.265625 571.769531 357.320312 C 570.546875 358.378906 569.296875 359.402344 568.019531 360.394531 C 566.742188 361.382812 565.441406 362.34375 564.113281 363.265625 C 562.789062 364.1875 561.4375 365.078125 560.066406 365.929688 C 558.695312 366.785156 557.300781 367.601562 555.882812 368.382812 C 554.46875 369.164062 553.035156 369.90625 551.582031 370.613281 C 550.125 371.320312 548.65625 371.984375 547.167969 372.617188 C 545.675781 373.246094 544.171875 373.835938 542.652344 374.386719 C 541.132812 374.9375 539.601562 375.449219 538.054688 375.921875 C 536.507812 376.390625 534.953125 376.824219 533.382812 377.210938 C 531.816406 377.601562 530.238281 377.953125 528.652344 378.261719 C 527.0625 378.570312 525.46875 378.835938 523.871094 379.058594 C 522.269531 379.285156 520.664062 379.46875 519.054688 379.609375 C 517.445312 379.75 515.832031 379.851562 514.214844 379.910156 C 512.601562 379.964844 510.984375 379.980469 509.367188 379.957031 C 507.753906 379.929688 506.136719 379.859375 504.527344 379.75 C 502.914062 379.640625 501.304688 379.488281 499.699219 379.292969 C 498.09375 379.097656 496.496094 378.863281 494.90625 378.585938 C 493.3125 378.308594 491.726562 377.988281 490.152344 377.628906 C 488.578125 377.269531 487.011719 376.867188 485.457031 376.425781 C 483.902344 375.984375 482.359375 375.503906 480.828125 374.980469 C 479.300781 374.457031 477.785156 373.898438 476.285156 373.296875 C 474.785156 372.695312 473.300781 372.058594 471.832031 371.378906 C 470.363281 370.699219 468.917969 369.984375 467.484375 369.230469 C 466.054688 368.476562 464.648438 367.6875 463.257812 366.863281 C 461.867188 366.035156 460.503906 365.171875 459.160156 364.273438 C 457.816406 363.375 456.496094 362.445312 455.199219 361.476562 C 453.902344 360.511719 452.632812 359.511719 451.390625 358.476562 C 450.148438 357.445312 448.933594 356.382812 447.746094 355.285156 C 446.554688 354.1875 445.398438 353.0625 444.269531 351.90625 C 443.140625 350.75 442.039062 349.566406 440.972656 348.351562 C 439.90625 347.136719 438.871094 345.898438 437.867188 344.628906 C 436.863281 343.363281 435.894531 342.070312 434.960938 340.75 C 434.023438 339.433594 433.121094 338.09375 432.257812 336.726562 C 431.390625 335.363281 430.5625 333.976562 429.765625 332.566406 C 428.972656 331.160156 428.21875 329.730469 427.496094 328.285156 C 426.777344 326.835938 426.097656 325.371094 425.453125 323.890625 C 424.8125 322.40625 424.207031 320.90625 423.640625 319.394531 C 423.078125 317.878906 422.550781 316.351562 422.066406 314.808594 C 421.582031 313.265625 421.136719 311.714844 420.730469 310.148438 C 420.328125 308.585938 419.964844 307.011719 419.640625 305.425781 C 419.316406 303.84375 419.035156 302.25 418.796875 300.652344 C 418.558594 299.054688 418.359375 297.449219 418.203125 295.84375 C 418.046875 294.234375 417.933594 292.621094 417.859375 291.007812 C 417.789062 289.390625 417.757812 287.777344 417.769531 286.160156 C 417.78125 284.542969 417.835938 282.929688 417.929688 281.316406 C 418.027344 279.703125 418.164062 278.09375 418.34375 276.484375 C 418.523438 274.878906 418.746094 273.277344 419.007812 271.683594 C 419.269531 270.089844 419.574219 268.503906 419.921875 266.921875 C 420.265625 265.34375 420.652344 263.777344 421.078125 262.214844 C 421.507812 260.65625 421.976562 259.109375 422.484375 257.578125 C 422.992188 256.042969 423.539062 254.523438 424.125 253.015625 C 424.710938 251.511719 425.335938 250.019531 426.003906 248.546875 C 426.667969 247.074219 427.367188 245.617188 428.109375 244.179688 C 428.847656 242.746094 429.625 241.328125 430.441406 239.929688 C 431.253906 238.535156 432.105469 237.160156 432.992188 235.808594 C 433.875 234.457031 434.796875 233.128906 435.75 231.824219 C 436.707031 230.519531 437.695312 229.242188 438.714844 227.988281 C 439.117188 227.496094 439.46875 226.972656 439.773438 226.417969 C 440.078125 225.859375 440.328125 225.28125 440.523438 224.679688 C 440.722656 224.074219 440.863281 223.460938 440.949219 222.832031 C 441.03125 222.203125 441.058594 221.570312 441.023438 220.9375 C 440.992188 220.304688 440.902344 219.679688 440.753906 219.0625 C 440.609375 218.445312 440.40625 217.847656 440.148438 217.269531 C 439.890625 216.691406 439.582031 216.140625 439.222656 215.617188 C 438.863281 215.09375 438.460938 214.609375 438.011719 214.160156 C 437.5 213.648438 436.941406 213.195312 436.339844 212.804688 C 435.734375 212.410156 435.09375 212.082031 434.417969 211.820312 C 433.746094 211.5625 433.050781 211.375 432.339844 211.261719 C 431.625 211.144531 430.910156 211.105469 430.1875 211.144531 C 429.46875 211.179688 428.757812 211.289062 428.058594 211.472656 C 427.363281 211.660156 426.691406 211.914062 426.046875 212.238281 C 425.402344 212.566406 424.796875 212.953125 424.234375 213.40625 C 423.671875 213.855469 423.160156 214.363281 422.703125 214.921875 C 406.707031 234.527344 397.097656 259.542969 397.097656 286.757812 C 397.097656 347.882812 445.550781 397.902344 506.0625 400.425781 C 572.449219 403.195312 627.246094 348.449219 624.539062 282.066406 C 622.90625 242.003906 600.453125 207.214844 567.738281 188.253906 Z M 567.738281 188.253906 " fill-opacity="1" fill-rule="nonzero"/></g><path fill="#411361" d="M 581.867188 256.765625 C 581.253906 255.308594 580.59375 253.871094 579.894531 252.457031 C 579.191406 251.039062 578.449219 249.644531 577.660156 248.277344 C 576.875 246.90625 576.046875 245.558594 575.179688 244.242188 C 574.308594 242.921875 573.398438 241.628906 572.453125 240.367188 C 571.503906 239.101562 570.515625 237.867188 569.492188 236.664062 C 568.46875 235.460938 567.410156 234.289062 566.3125 233.152344 C 565.21875 232.011719 564.089844 230.910156 562.925781 229.839844 C 561.761719 228.769531 560.566406 227.738281 559.339844 226.742188 C 558.113281 225.746094 556.855469 224.789062 555.570312 223.871094 C 554.285156 222.953125 552.972656 222.074219 551.632812 221.234375 C 550.292969 220.394531 548.929688 219.597656 547.542969 218.84375 C 546.152344 218.089844 544.742188 217.378906 543.3125 216.710938 C 541.878906 216.042969 540.429688 215.417969 538.960938 214.839844 C 537.488281 214.257812 536.003906 213.726562 534.5 213.238281 C 532.996094 212.75 531.480469 212.308594 529.949219 211.910156 C 528.421875 211.515625 526.878906 211.167969 525.328125 210.867188 C 523.777344 210.566406 522.21875 210.3125 520.652344 210.109375 C 519.085938 209.902344 517.511719 209.746094 515.9375 209.636719 C 514.359375 209.527344 512.78125 209.46875 511.203125 209.457031 C 509.621094 209.445312 508.042969 209.480469 506.464844 209.566406 C 504.886719 209.652344 503.3125 209.785156 501.742188 209.964844 C 500.175781 210.148438 498.609375 210.375 497.054688 210.652344 C 495.5 210.929688 493.953125 211.253906 492.417969 211.625 C 490.882812 212 489.359375 212.417969 487.847656 212.882812 C 486.339844 213.347656 484.84375 213.859375 483.367188 214.414062 C 481.886719 214.972656 480.425781 215.574219 478.984375 216.222656 C 477.542969 216.867188 476.121094 217.558594 474.722656 218.289062 C 473.324219 219.023438 471.949219 219.800781 470.597656 220.617188 C 469.242188 221.4375 467.917969 222.292969 466.617188 223.195312 C 465.320312 224.09375 464.050781 225.03125 462.808594 226.007812 C 461.566406 226.984375 460.355469 228 459.175781 229.050781 C 457.996094 230.101562 456.847656 231.1875 455.738281 232.3125 C 454.625 233.433594 453.546875 234.585938 452.503906 235.773438 C 451.460938 236.964844 450.457031 238.179688 449.488281 239.429688 C 448.523438 240.679688 447.59375 241.957031 446.703125 243.265625 C 445.816406 244.570312 444.96875 245.902344 444.160156 247.261719 C 443.351562 248.621094 442.585938 250 441.863281 251.40625 C 441.140625 252.8125 440.460938 254.238281 439.828125 255.683594 C 439.191406 257.132812 438.601562 258.597656 438.058594 260.078125 C 437.511719 261.5625 437.011719 263.0625 436.558594 264.574219 C 436.105469 266.089844 435.699219 267.613281 435.339844 269.152344 C 434.976562 270.691406 434.664062 272.238281 434.402344 273.796875 C 434.136719 275.355469 433.917969 276.917969 433.75 278.492188 C 433.582031 280.0625 433.460938 281.636719 433.386719 283.214844 C 433.316406 284.792969 433.289062 286.371094 433.316406 287.953125 C 433.339844 289.53125 433.410156 291.109375 433.53125 292.6875 C 433.652344 294.261719 433.824219 295.832031 434.039062 297.398438 C 434.257812 298.960938 434.523438 300.519531 434.835938 302.066406 C 435.148438 303.617188 435.507812 305.15625 435.914062 306.683594 C 436.324219 308.207031 436.777344 309.722656 437.277344 311.21875 C 437.777344 312.71875 438.320312 314.203125 438.910156 315.667969 C 439.503906 317.132812 440.136719 318.578125 440.816406 320.003906 C 441.496094 321.433594 442.21875 322.835938 442.984375 324.21875 C 443.75 325.601562 444.558594 326.957031 445.40625 328.292969 C 446.253906 329.625 447.144531 330.929688 448.074219 332.207031 C 449 333.488281 449.96875 334.734375 450.972656 335.953125 C 451.980469 337.171875 453.023438 338.359375 454.101562 339.515625 C 455.179688 340.671875 456.289062 341.792969 457.4375 342.878906 C 458.585938 343.964844 459.765625 345.015625 460.976562 346.03125 C 462.1875 347.046875 463.429688 348.023438 464.699219 348.960938 C 465.96875 349.898438 467.269531 350.796875 468.59375 351.65625 C 469.921875 352.515625 471.273438 353.332031 472.648438 354.109375 C 474.027344 354.882812 475.425781 355.617188 476.847656 356.308594 C 478.269531 357 479.710938 357.644531 481.171875 358.246094 C 482.632812 358.847656 484.109375 359.402344 485.605469 359.914062 C 487.101562 360.425781 488.609375 360.890625 490.132812 361.308594 C 491.65625 361.730469 493.191406 362.101562 494.738281 362.425781 C 496.285156 362.75 497.839844 363.027344 499.402344 363.253906 C 500.96875 363.484375 502.535156 363.664062 504.109375 363.796875 C 505.683594 363.929688 507.261719 364.015625 508.84375 364.050781 C 510.421875 364.089844 512 364.078125 513.578125 364.015625 C 515.160156 363.953125 516.734375 363.847656 518.308594 363.6875 C 519.878906 363.53125 521.445312 363.328125 523.003906 363.074219 C 524.566406 362.820312 526.117188 362.519531 527.65625 362.171875 C 529.199219 361.824219 530.726562 361.425781 532.242188 360.984375 C 533.761719 360.542969 535.261719 360.054688 536.75 359.519531 C 538.238281 358.988281 539.707031 358.40625 541.160156 357.78125 C 542.609375 357.160156 544.042969 356.492188 545.453125 355.777344 C 546.863281 355.066406 548.25 354.3125 549.613281 353.515625 C 550.980469 352.71875 552.316406 351.878906 553.628906 351 C 554.941406 350.121094 556.226562 349.203125 557.484375 348.246094 C 558.742188 347.285156 559.96875 346.289062 561.164062 345.257812 C 562.359375 344.222656 563.519531 343.15625 564.652344 342.050781 C 565.78125 340.945312 566.875 339.808594 567.9375 338.636719 C 568.996094 337.464844 570.019531 336.261719 571.007812 335.027344 C 571.992188 333.792969 572.941406 332.53125 573.851562 331.238281 C 574.757812 329.945312 575.628906 328.625 576.457031 327.28125 C 577.285156 325.933594 578.070312 324.5625 578.8125 323.171875 C 579.558594 321.777344 580.257812 320.359375 580.917969 318.925781 C 581.574219 317.488281 582.1875 316.03125 582.753906 314.558594 C 583.324219 313.082031 583.84375 311.589844 584.320312 310.085938 C 584.796875 308.578125 585.230469 307.058594 585.613281 305.527344 C 585.996094 303.992188 586.332031 302.449219 586.621094 300.894531 C 586.910156 299.34375 587.152344 297.78125 587.34375 296.214844 C 587.535156 294.644531 587.683594 293.074219 587.777344 291.496094 C 587.875 289.917969 587.921875 288.339844 587.921875 286.757812 C 587.929688 281.609375 587.421875 276.507812 586.402344 271.457031 C 585.382812 266.40625 583.871094 261.507812 581.867188 256.765625 Z M 581.867188 256.765625 " fill-opacity="1" fill-rule="nonzero"/><path fill="#ffffff" d="M 488.050781 292.015625 C 487.488281 294.011719 486.660156 295.714844 485.570312 297.125 C 484.480469 298.546875 483.132812 299.648438 481.523438 300.433594 C 479.910156 301.222656 478.042969 301.621094 475.925781 301.621094 C 473.742188 301.621094 471.890625 301.296875 470.371094 300.652344 C 468.847656 300.011719 467.449219 299.167969 466.171875 298.125 L 469.605469 293.179688 C 470.679688 294.058594 471.710938 294.699219 472.703125 295.109375 C 473.691406 295.519531 474.820312 295.722656 476.09375 295.726562 C 477.929688 295.726562 479.335938 295.097656 480.3125 293.847656 C 481.289062 292.597656 481.886719 290.960938 482.117188 288.941406 C 481.339844 289.585938 480.476562 290.082031 479.527344 290.425781 C 478.539062 290.792969 477.394531 290.976562 476.09375 290.976562 C 474.476562 290.976562 473.023438 290.757812 471.726562 290.320312 C 470.480469 289.917969 469.367188 289.285156 468.375 288.429688 C 467.425781 287.59375 466.714844 286.589844 466.234375 285.421875 C 465.738281 284.234375 465.492188 282.875 465.492188 281.351562 C 465.480469 279.90625 465.753906 278.523438 466.320312 277.195312 C 466.859375 275.929688 467.632812 274.828125 468.632812 273.886719 C 469.679688 272.917969 470.871094 272.191406 472.214844 271.707031 C 473.703125 271.164062 475.234375 270.902344 476.820312 270.921875 C 477.722656 270.914062 478.617188 270.976562 479.511719 271.113281 C 480.273438 271.226562 481.015625 271.417969 481.738281 271.683594 C 482.414062 271.9375 483.050781 272.269531 483.648438 272.679688 C 484.269531 273.117188 484.851562 273.605469 485.386719 274.144531 C 485.933594 274.695312 486.414062 275.300781 486.828125 275.960938 C 487.285156 276.710938 487.652344 277.503906 487.929688 278.335938 C 488.265625 279.347656 488.503906 280.378906 488.652344 281.433594 C 488.832031 282.742188 488.914062 284.054688 488.90625 285.375 C 488.902344 287.808594 488.617188 290.023438 488.050781 292.015625 Z M 480.859375 277.789062 C 479.9375 276.941406 478.652344 276.519531 477.003906 276.519531 C 475.390625 276.519531 474.140625 276.933594 473.257812 277.769531 C 472.375 278.605469 471.933594 279.699219 471.9375 281.054688 C 471.9375 282.414062 472.398438 283.503906 473.320312 284.328125 C 474.246094 285.152344 475.515625 285.5625 477.132812 285.558594 C 478.75 285.558594 480.003906 285.140625 480.902344 284.304688 C 481.796875 283.472656 482.246094 282.40625 482.242188 281.105469 C 482.242188 279.742188 481.78125 278.636719 480.859375 277.789062 Z M 480.859375 277.789062 " fill-opacity="1" fill-rule="nonzero"/><path fill="#ffffff" d="M 518.902344 292.292969 C 518.308594 294.085938 517.414062 295.710938 516.210938 297.167969 C 515.054688 298.5625 513.660156 299.652344 512.03125 300.441406 C 510.40625 301.230469 508.605469 301.628906 506.625 301.628906 C 504.648438 301.628906 502.847656 301.242188 501.21875 300.460938 C 499.59375 299.691406 498.207031 298.609375 497.0625 297.21875 C 495.878906 295.765625 494.996094 294.144531 494.414062 292.363281 C 493.789062 290.394531 493.476562 288.378906 493.480469 286.316406 C 493.484375 284.253906 493.800781 282.242188 494.433594 280.277344 C 495.023438 278.472656 495.921875 276.84375 497.128906 275.378906 C 498.285156 273.988281 499.675781 272.898438 501.304688 272.109375 C 502.929688 271.316406 504.734375 270.921875 506.714844 270.921875 C 508.691406 270.917969 510.496094 271.308594 512.121094 272.085938 C 513.746094 272.859375 515.132812 273.941406 516.277344 275.332031 C 517.464844 276.792969 518.347656 278.417969 518.925781 280.207031 C 519.566406 282.164062 519.875 284.171875 519.859375 286.230469 C 519.878906 288.304688 519.558594 290.324219 518.902344 292.292969 Z M 512.691406 282.539062 C 512.417969 281.464844 511.976562 280.460938 511.375 279.527344 C 510.839844 278.707031 510.152344 278.042969 509.316406 277.535156 C 508.484375 277.058594 507.59375 276.820312 506.636719 276.816406 C 505.679688 276.8125 504.785156 277.042969 503.953125 277.515625 C 503.125 278.007812 502.445312 278.660156 501.917969 279.464844 C 501.3125 280.386719 500.878906 281.382812 500.621094 282.453125 C 500.316406 283.691406 500.167969 284.949219 500.179688 286.226562 C 500.167969 287.507812 500.324219 288.765625 500.644531 290 C 500.917969 291.078125 501.355469 292.082031 501.957031 293.011719 C 502.492188 293.832031 503.179688 294.5 504.019531 295.003906 C 504.847656 295.480469 505.742188 295.722656 506.699219 295.726562 C 507.652344 295.730469 508.550781 295.496094 509.382812 295.027344 C 510.210938 294.527344 510.890625 293.871094 511.417969 293.054688 C 512.015625 292.132812 512.449219 291.136719 512.710938 290.066406 C 513.019531 288.832031 513.167969 287.582031 513.15625 286.308594 C 513.167969 285.03125 513.011719 283.777344 512.691406 282.539062 Z M 512.691406 282.539062 " fill-opacity="1" fill-rule="nonzero"/><path fill="#ffffff" d="M 537.941406 281.628906 C 537.601562 282.53125 537.105469 283.335938 536.457031 284.050781 C 535.808594 284.753906 535.046875 285.296875 534.167969 285.683594 C 533.226562 286.089844 532.246094 286.289062 531.21875 286.277344 C 530.496094 286.289062 529.785156 286.1875 529.089844 285.976562 C 528.394531 285.765625 527.75 285.457031 527.152344 285.042969 C 526.554688 284.628906 526.035156 284.136719 525.59375 283.558594 C 525.152344 282.984375 524.808594 282.355469 524.5625 281.671875 C 524.214844 280.71875 524.046875 279.738281 524.054688 278.722656 C 524.046875 277.703125 524.222656 276.710938 524.585938 275.753906 C 524.921875 274.847656 525.414062 274.035156 526.066406 273.316406 C 526.71875 272.613281 527.480469 272.070312 528.359375 271.683594 C 529.296875 271.277344 530.28125 271.078125 531.304688 271.089844 C 532.03125 271.078125 532.742188 271.179688 533.4375 271.390625 C 534.132812 271.601562 534.777344 271.910156 535.375 272.324219 C 535.972656 272.738281 536.492188 273.230469 536.933594 273.808594 C 537.375 274.382812 537.71875 275.011719 537.964844 275.695312 C 538.308594 276.648438 538.480469 277.628906 538.472656 278.644531 C 538.480469 279.671875 538.304688 280.664062 537.941406 281.628906 Z M 532.070312 301.113281 L 527.023438 301.113281 L 548.691406 271.429688 L 553.738281 271.429688 Z M 533.257812 276.074219 C 532.746094 275.324219 532.070312 274.949219 531.222656 274.949219 C 530.316406 274.949219 529.636719 275.316406 529.1875 276.050781 C 528.734375 276.785156 528.507812 277.648438 528.507812 278.636719 C 528.507812 279.65625 528.761719 280.539062 529.269531 281.289062 C 529.78125 282.039062 530.457031 282.414062 531.304688 282.414062 C 532.210938 282.414062 532.890625 282.046875 533.339844 281.3125 C 533.792969 280.574219 534.019531 279.714844 534.019531 278.722656 C 534.019531 277.707031 533.765625 276.824219 533.257812 276.070312 Z M 556.179688 296.808594 C 555.839844 297.710938 555.34375 298.519531 554.695312 299.230469 C 554.046875 299.9375 553.285156 300.480469 552.40625 300.863281 C 551.464844 301.273438 550.484375 301.472656 549.457031 301.457031 C 548.730469 301.46875 548.023438 301.371094 547.328125 301.160156 C 546.632812 300.949219 545.988281 300.636719 545.390625 300.226562 C 544.792969 299.8125 544.273438 299.316406 543.832031 298.742188 C 543.390625 298.167969 543.046875 297.539062 542.800781 296.855469 C 542.453125 295.902344 542.285156 294.917969 542.292969 293.90625 C 542.285156 292.882812 542.460938 291.894531 542.820312 290.9375 C 543.160156 290.03125 543.652344 289.21875 544.304688 288.5 C 544.957031 287.796875 545.71875 287.253906 546.597656 286.867188 C 547.535156 286.460938 548.519531 286.261719 549.542969 286.273438 C 550.269531 286.261719 550.980469 286.363281 551.675781 286.574219 C 552.367188 286.785156 553.015625 287.09375 553.613281 287.507812 C 554.207031 287.921875 554.726562 288.414062 555.171875 288.992188 C 555.613281 289.566406 555.957031 290.195312 556.203125 290.878906 C 556.546875 291.832031 556.71875 292.8125 556.710938 293.828125 C 556.71875 294.851562 556.542969 295.847656 556.179688 296.808594 Z M 551.492188 291.25 C 550.980469 290.503906 550.304688 290.128906 549.457031 290.128906 C 548.550781 290.128906 547.871094 290.496094 547.421875 291.230469 C 546.96875 291.964844 546.742188 292.828125 546.742188 293.816406 C 546.742188 294.835938 546.996094 295.71875 547.503906 296.46875 C 548.015625 297.21875 548.691406 297.59375 549.539062 297.59375 C 550.445312 297.59375 551.125 297.226562 551.574219 296.488281 C 552.027344 295.753906 552.253906 294.890625 552.253906 293.902344 C 552.253906 292.886719 552 292.003906 551.492188 291.25 Z M 551.492188 291.25 " fill-opacity="1" fill-rule="nonzero"/></svg>