<svg xmlns="http://www.w3.org/2000/svg" xmlns:xlink="http://www.w3.org/1999/xlink" width="1366" zoomAndPan="magnify" viewBox="0 0 1024.5 576" height="768" preserveAspectRatio="xMidYMid meet" version="1.0"><defs><clipPath id="54fd94c59d"><path d="M 397.097656 173 L 625 173 L 625 401 L 397.097656 401 Z M 397.097656 173 " clip-rule="nonzero"/></clipPath></defs><path fill="#ad2c2b" d="M 611.371094 244.339844 C 610.003906 241.109375 608.480469 237.957031 606.808594 234.875 C 605.136719 231.796875 603.320312 228.800781 601.359375 225.894531 C 599.402344 222.988281 597.304688 220.183594 595.074219 217.480469 C 592.84375 214.773438 590.488281 212.183594 588.011719 209.703125 C 585.53125 207.226562 582.9375 204.871094 580.230469 202.644531 C 577.527344 200.414062 574.71875 198.320312 571.8125 196.359375 C 568.902344 194.402344 565.910156 192.585938 562.828125 190.914062 C 559.746094 189.242188 556.589844 187.722656 553.359375 186.355469 C 539.917969 180.671875 525.644531 177.792969 510.929688 177.792969 C 496.214844 177.792969 481.941406 180.671875 468.5 186.355469 C 465.269531 187.722656 462.113281 189.242188 459.035156 190.914062 C 455.953125 192.585938 452.957031 194.402344 450.050781 196.359375 C 447.140625 198.320312 444.335938 200.414062 441.628906 202.644531 C 438.921875 204.875 436.332031 207.226562 433.851562 209.707031 C 431.371094 212.183594 429.015625 214.773438 426.789062 217.480469 C 424.558594 220.183594 422.460938 222.988281 420.5 225.894531 C 418.542969 228.800781 416.726562 231.796875 415.054688 234.875 C 413.382812 237.957031 411.859375 241.113281 410.492188 244.339844 C 404.808594 257.773438 401.925781 272.042969 401.925781 286.753906 C 401.925781 301.460938 404.808594 315.730469 410.492188 329.167969 C 411.859375 332.394531 413.382812 335.546875 415.054688 338.628906 C 416.726562 341.707031 418.542969 344.703125 420.5 347.609375 C 422.460938 350.515625 424.558594 353.320312 426.789062 356.023438 C 429.015625 358.730469 431.371094 361.320312 433.851562 363.800781 C 436.332031 366.277344 438.921875 368.632812 441.628906 370.859375 C 444.335938 373.089844 447.140625 375.183594 450.050781 377.144531 C 452.957031 379.101562 455.953125 380.917969 459.035156 382.589844 C 462.113281 384.261719 465.269531 385.78125 468.5 387.148438 C 481.941406 392.832031 496.214844 395.710938 510.929688 395.710938 C 525.644531 395.710938 539.917969 392.832031 553.359375 387.148438 C 556.589844 385.78125 559.746094 384.261719 562.828125 382.589844 C 565.910156 380.917969 568.90625 379.101562 571.8125 377.144531 C 574.71875 375.183594 577.527344 373.089844 580.230469 370.859375 C 582.9375 368.628906 585.53125 366.277344 588.011719 363.796875 C 590.492188 361.320312 592.84375 358.726562 595.074219 356.023438 C 597.304688 353.316406 599.402344 350.511719 601.359375 347.605469 C 603.320312 344.699219 605.136719 341.707031 606.808594 338.625 C 608.480469 335.542969 610.003906 332.390625 611.371094 329.164062 C 617.054688 315.726562 619.9375 301.457031 619.9375 286.75 C 619.9375 272.039062 617.054688 257.773438 611.371094 244.339844 Z M 510.933594 387.164062 C 455.550781 387.164062 410.484375 342.121094 410.484375 286.757812 C 410.484375 231.390625 455.546875 186.351562 510.933594 186.351562 C 566.320312 186.351562 611.382812 231.390625 611.382812 286.757812 C 611.382812 342.121094 566.320312 387.160156 510.933594 387.160156 Z M 510.933594 387.164062 " fill-opacity="1" fill-rule="nonzero"/><path fill="#411361" d="M 581.953125 256.761719 C 581.339844 255.304688 580.683594 253.871094 579.984375 252.453125 C 579.28125 251.039062 578.535156 249.644531 577.75 248.273438 C 576.964844 246.902344 576.136719 245.558594 575.265625 244.238281 C 574.394531 242.921875 573.488281 241.628906 572.539062 240.363281 C 571.589844 239.101562 570.605469 237.867188 569.578125 236.664062 C 568.554688 235.460938 567.496094 234.289062 566.398438 233.152344 C 565.304688 232.015625 564.171875 230.910156 563.007812 229.839844 C 561.84375 228.773438 560.648438 227.738281 559.421875 226.742188 C 558.195312 225.746094 556.9375 224.789062 555.652344 223.871094 C 554.367188 222.953125 553.054688 222.074219 551.714844 221.238281 C 550.375 220.398438 549.011719 219.601562 547.621094 218.847656 C 546.234375 218.09375 544.824219 217.382812 543.390625 216.710938 C 541.957031 216.042969 540.507812 215.421875 539.035156 214.839844 C 537.566406 214.261719 536.078125 213.726562 534.578125 213.242188 C 533.074219 212.753906 531.554688 212.3125 530.027344 211.914062 C 528.496094 211.519531 526.953125 211.171875 525.402344 210.871094 C 523.851562 210.570312 522.292969 210.316406 520.726562 210.113281 C 519.15625 209.90625 517.585938 209.75 516.007812 209.640625 C 514.433594 209.535156 512.851562 209.472656 511.273438 209.460938 C 509.691406 209.449219 508.113281 209.484375 506.535156 209.570312 C 504.957031 209.65625 503.382812 209.789062 501.8125 209.96875 C 500.242188 210.152344 498.679688 210.378906 497.121094 210.65625 C 495.566406 210.933594 494.019531 211.257812 492.484375 211.628906 C 490.949219 212.003906 489.425781 212.421875 487.914062 212.886719 C 486.402344 213.351562 484.910156 213.863281 483.429688 214.417969 C 481.949219 214.976562 480.488281 215.578125 479.046875 216.222656 C 477.605469 216.871094 476.183594 217.558594 474.785156 218.292969 C 473.382812 219.027344 472.007812 219.804688 470.65625 220.621094 C 469.304688 221.4375 467.976562 222.296875 466.679688 223.195312 C 465.378906 224.09375 464.109375 225.035156 462.867188 226.011719 C 461.625 226.988281 460.414062 228 459.230469 229.050781 C 458.050781 230.105469 456.90625 231.191406 455.792969 232.3125 C 454.679688 233.433594 453.601562 234.585938 452.558594 235.777344 C 451.515625 236.964844 450.511719 238.179688 449.542969 239.429688 C 448.574219 240.679688 447.648438 241.957031 446.757812 243.261719 C 445.867188 244.570312 445.019531 245.902344 444.210938 247.261719 C 443.40625 248.617188 442.640625 250 441.917969 251.40625 C 441.195312 252.808594 440.515625 254.234375 439.878906 255.683594 C 439.246094 257.128906 438.652344 258.59375 438.109375 260.078125 C 437.5625 261.558594 437.0625 263.058594 436.609375 264.570312 C 436.15625 266.085938 435.75 267.609375 435.390625 269.148438 C 435.027344 270.6875 434.714844 272.234375 434.449219 273.792969 C 434.1875 275.351562 433.96875 276.914062 433.800781 278.484375 C 433.628906 280.054688 433.511719 281.628906 433.4375 283.207031 C 433.363281 284.785156 433.339844 286.367188 433.363281 287.945312 C 433.390625 289.523438 433.460938 291.101562 433.582031 292.679688 C 433.703125 294.253906 433.875 295.824219 434.089844 297.386719 C 434.308594 298.953125 434.574219 300.511719 434.886719 302.058594 C 435.199219 303.609375 435.558594 305.144531 435.964844 306.671875 C 436.375 308.199219 436.828125 309.710938 437.328125 311.210938 C 437.828125 312.707031 438.371094 314.191406 438.964844 315.65625 C 439.554688 317.121094 440.191406 318.566406 440.871094 319.992188 C 441.550781 321.421875 442.273438 322.824219 443.039062 324.207031 C 443.804688 325.589844 444.609375 326.945312 445.460938 328.277344 C 446.308594 329.609375 447.199219 330.917969 448.128906 332.195312 C 449.054688 333.472656 450.023438 334.722656 451.027344 335.941406 C 452.035156 337.160156 453.078125 338.347656 454.15625 339.5 C 455.234375 340.65625 456.347656 341.777344 457.496094 342.863281 C 458.640625 343.949219 459.820312 345 461.03125 346.015625 C 462.246094 347.03125 463.484375 348.007812 464.757812 348.945312 C 466.027344 349.882812 467.328125 350.78125 468.65625 351.640625 C 469.980469 352.5 471.332031 353.316406 472.710938 354.09375 C 474.085938 354.867188 475.488281 355.601562 476.910156 356.289062 C 478.332031 356.980469 479.773438 357.625 481.234375 358.230469 C 482.695312 358.832031 484.171875 359.386719 485.667969 359.898438 C 487.164062 360.410156 488.675781 360.875 490.199219 361.292969 C 491.722656 361.710938 493.257812 362.082031 494.804688 362.40625 C 496.351562 362.730469 497.90625 363.007812 499.472656 363.238281 C 501.035156 363.464844 502.605469 363.648438 504.179688 363.78125 C 505.753906 363.914062 507.332031 363.996094 508.910156 364.035156 C 510.492188 364.070312 512.070312 364.058594 513.652344 363.996094 C 515.230469 363.9375 516.808594 363.828125 518.378906 363.671875 C 519.953125 363.511719 521.519531 363.308594 523.078125 363.054688 C 524.640625 362.800781 526.191406 362.5 527.730469 362.152344 C 529.273438 361.804688 530.804688 361.410156 532.320312 360.96875 C 533.835938 360.523438 535.339844 360.039062 536.828125 359.503906 C 538.316406 358.96875 539.785156 358.390625 541.238281 357.765625 C 542.6875 357.140625 544.121094 356.472656 545.53125 355.761719 C 546.941406 355.050781 548.332031 354.292969 549.695312 353.496094 C 551.058594 352.699219 552.398438 351.863281 553.710938 350.984375 C 555.023438 350.105469 556.308594 349.1875 557.566406 348.226562 C 558.824219 347.269531 560.050781 346.273438 561.246094 345.242188 C 562.441406 344.207031 563.605469 343.140625 564.734375 342.035156 C 565.867188 340.929688 566.960938 339.792969 568.023438 338.621094 C 569.082031 337.449219 570.105469 336.246094 571.09375 335.011719 C 572.082031 333.78125 573.027344 332.515625 573.9375 331.222656 C 574.847656 329.929688 575.714844 328.613281 576.542969 327.265625 C 577.371094 325.921875 578.160156 324.550781 578.902344 323.15625 C 579.648438 321.765625 580.347656 320.347656 581.003906 318.914062 C 581.664062 317.476562 582.277344 316.019531 582.84375 314.546875 C 583.414062 313.070312 583.933594 311.582031 584.410156 310.074219 C 584.886719 308.570312 585.320312 307.050781 585.703125 305.515625 C 586.085938 303.984375 586.421875 302.441406 586.710938 300.886719 C 587 299.332031 587.242188 297.773438 587.433594 296.207031 C 587.628906 294.636719 587.773438 293.066406 587.871094 291.488281 C 587.964844 289.910156 588.015625 288.332031 588.015625 286.753906 C 588.019531 281.601562 587.515625 276.5 586.496094 271.453125 C 585.472656 266.402344 583.960938 261.507812 581.953125 256.761719 Z M 581.953125 256.761719 " fill-opacity="1" fill-rule="nonzero"/><path fill="#ffffff" d="M 488.03125 296.460938 C 487.441406 297.5625 486.644531 298.484375 485.632812 299.21875 C 484.527344 300.011719 483.320312 300.582031 482.007812 300.933594 C 480.515625 301.34375 478.996094 301.542969 477.449219 301.527344 C 475.898438 301.542969 474.378906 301.335938 472.886719 300.914062 C 471.578125 300.546875 470.367188 299.96875 469.261719 299.175781 C 468.261719 298.449219 467.460938 297.546875 466.863281 296.460938 C 466.269531 295.355469 465.980469 294.175781 465.996094 292.921875 C 465.996094 291.085938 466.398438 289.609375 467.207031 288.492188 C 468.015625 287.375 469.210938 286.449219 470.792969 285.714844 C 469.679688 285.058594 468.761719 284.195312 468.035156 283.128906 C 467.355469 282.109375 467.015625 280.796875 467.015625 279.183594 C 467.011719 278.058594 467.257812 276.992188 467.757812 275.984375 C 468.269531 274.957031 468.976562 274.085938 469.878906 273.378906 C 470.871094 272.601562 471.96875 272.023438 473.167969 271.640625 C 476.015625 270.769531 478.867188 270.769531 481.714844 271.640625 C 482.921875 272.019531 484.027344 272.597656 485.023438 273.378906 C 485.925781 274.085938 486.632812 274.957031 487.144531 275.984375 C 487.644531 276.992188 487.890625 278.058594 487.886719 279.183594 C 487.886719 280.800781 487.546875 282.113281 486.871094 283.128906 C 486.144531 284.195312 485.222656 285.058594 484.113281 285.714844 C 485.640625 286.503906 486.820312 287.429688 487.652344 288.492188 C 488.488281 289.550781 488.90625 290.96875 488.90625 292.75 C 488.902344 294.136719 488.609375 295.375 488.03125 296.460938 Z M 481.132812 289.671875 C 480.171875 289.039062 478.941406 288.722656 477.441406 288.722656 C 475.941406 288.722656 474.710938 289.039062 473.75 289.671875 C 472.789062 290.304688 472.308594 291.210938 472.308594 292.390625 C 472.308594 293.457031 472.761719 294.339844 473.667969 295.042969 C 474.570312 295.746094 475.828125 296.097656 477.441406 296.097656 C 479.054688 296.097656 480.3125 295.746094 481.214844 295.042969 C 482.121094 294.339844 482.574219 293.457031 482.574219 292.390625 C 482.578125 291.210938 482.097656 290.304688 481.132812 289.671875 Z M 480.578125 277.480469 C 479.84375 276.777344 478.796875 276.425781 477.441406 276.425781 C 476.085938 276.425781 475.039062 276.769531 474.300781 277.460938 C 473.566406 278.148438 473.199219 278.957031 473.199219 279.882812 C 473.199219 280.949219 473.582031 281.828125 474.34375 282.515625 C 475.109375 283.207031 476.140625 283.550781 477.441406 283.550781 C 478.742188 283.550781 479.773438 283.210938 480.539062 282.539062 C 481.300781 281.863281 481.683594 280.992188 481.683594 279.925781 C 481.6875 279 481.320312 278.183594 480.585938 277.480469 Z M 480.578125 277.480469 " fill-opacity="1" fill-rule="nonzero"/><path fill="#ffffff" d="M 518.527344 292.285156 C 517.933594 294.078125 517.035156 295.703125 515.832031 297.160156 C 514.675781 298.550781 513.285156 299.636719 511.65625 300.425781 C 510.03125 301.21875 508.226562 301.613281 506.25 301.613281 C 504.269531 301.613281 502.46875 301.222656 500.839844 300.445312 C 499.214844 299.675781 497.828125 298.59375 496.683594 297.203125 C 495.496094 295.75 494.613281 294.132812 494.035156 292.347656 C 493.40625 290.382812 493.097656 288.367188 493.101562 286.304688 C 493.101562 284.242188 493.421875 282.230469 494.054688 280.265625 C 494.644531 278.464844 495.539062 276.832031 496.746094 275.367188 C 497.90625 273.976562 499.296875 272.890625 500.925781 272.101562 C 502.550781 271.3125 504.355469 270.917969 506.335938 270.914062 C 508.316406 270.914062 510.117188 271.304688 511.742188 272.082031 C 513.371094 272.855469 514.753906 273.9375 515.898438 275.328125 C 517.089844 276.785156 517.972656 278.410156 518.550781 280.203125 C 519.191406 282.160156 519.5 284.164062 519.484375 286.222656 C 519.503906 288.296875 519.183594 290.316406 518.527344 292.285156 Z M 512.3125 282.53125 C 512.039062 281.457031 511.601562 280.453125 510.996094 279.523438 C 510.464844 278.703125 509.777344 278.035156 508.9375 277.53125 C 508.109375 277.054688 507.214844 276.8125 506.257812 276.808594 C 505.300781 276.804688 504.40625 277.039062 503.574219 277.507812 C 502.746094 278.003906 502.066406 278.65625 501.535156 279.460938 C 500.929688 280.378906 500.5 281.375 500.242188 282.449219 C 499.9375 283.6875 499.789062 284.945312 499.796875 286.222656 C 499.789062 287.5 499.941406 288.757812 500.265625 289.996094 C 500.539062 291.070312 500.976562 292.074219 501.578125 293.003906 C 502.113281 293.828125 502.800781 294.492188 503.640625 295 C 504.46875 295.476562 505.363281 295.714844 506.320312 295.71875 C 507.277344 295.722656 508.171875 295.488281 509.007812 295.019531 C 509.835938 294.519531 510.515625 293.863281 511.042969 293.046875 C 511.640625 292.125 512.074219 291.128906 512.335938 290.058594 C 512.644531 288.828125 512.792969 287.574219 512.78125 286.304688 C 512.789062 285.027344 512.632812 283.769531 512.3125 282.53125 Z M 512.3125 282.53125 " fill-opacity="1" fill-rule="nonzero"/><path fill="#ffffff" d="M 537.570312 281.621094 C 537.230469 282.523438 536.738281 283.332031 536.085938 284.042969 C 535.4375 284.75 534.675781 285.292969 533.796875 285.675781 C 532.855469 286.085938 531.875 286.285156 530.847656 286.269531 C 530.121094 286.285156 529.410156 286.183594 528.714844 285.972656 C 528.019531 285.765625 527.375 285.453125 526.777344 285.039062 C 526.179688 284.628906 525.65625 284.132812 525.214844 283.558594 C 524.773438 282.980469 524.429688 282.351562 524.183594 281.667969 C 523.835938 280.714844 523.667969 279.734375 523.675781 278.722656 C 523.667969 277.699219 523.84375 276.710938 524.203125 275.753906 C 524.542969 274.84375 525.035156 274.03125 525.691406 273.316406 C 526.339844 272.613281 527.101562 272.066406 527.980469 271.683594 C 528.921875 271.273438 529.902344 271.078125 530.925781 271.089844 C 531.652344 271.078125 532.363281 271.175781 533.058594 271.386719 C 533.753906 271.597656 534.402344 271.910156 535 272.320312 C 535.597656 272.734375 536.117188 273.226562 536.5625 273.804688 C 537.003906 274.378906 537.347656 275.007812 537.59375 275.691406 C 537.941406 276.644531 538.109375 277.628906 538.101562 278.640625 C 538.109375 279.667969 537.933594 280.660156 537.570312 281.621094 Z M 531.695312 301.105469 L 526.648438 301.105469 L 548.324219 271.425781 L 553.371094 271.425781 Z M 532.882812 276.070312 C 532.375 275.320312 531.695312 274.945312 530.847656 274.945312 C 529.941406 274.945312 529.265625 275.3125 528.8125 276.046875 C 528.359375 276.78125 528.136719 277.644531 528.132812 278.632812 C 528.132812 279.652344 528.386719 280.535156 528.898438 281.285156 C 529.40625 282.035156 530.085938 282.40625 530.933594 282.40625 C 531.839844 282.40625 532.515625 282.039062 532.96875 281.304688 C 533.421875 280.570312 533.648438 279.707031 533.648438 278.71875 C 533.648438 277.703125 533.390625 276.816406 532.878906 276.066406 Z M 555.808594 296.800781 C 555.46875 297.703125 554.976562 298.507812 554.324219 299.21875 C 553.675781 299.921875 552.914062 300.46875 552.035156 300.851562 C 551.09375 301.257812 550.113281 301.457031 549.089844 301.445312 C 548.363281 301.457031 547.652344 301.359375 546.953125 301.148438 C 546.257812 300.9375 545.613281 300.625 545.015625 300.214844 C 544.417969 299.800781 543.898438 299.304688 543.453125 298.730469 C 543.011719 298.152344 542.667969 297.523438 542.421875 296.839844 C 542.074219 295.890625 541.90625 294.90625 541.914062 293.894531 C 541.90625 292.871094 542.085938 291.882812 542.445312 290.925781 C 542.78125 290.015625 543.277344 289.203125 543.929688 288.488281 C 544.578125 287.785156 545.339844 287.238281 546.21875 286.855469 C 547.160156 286.445312 548.140625 286.25 549.167969 286.261719 C 549.894531 286.25 550.605469 286.347656 551.300781 286.558594 C 551.996094 286.769531 552.640625 287.082031 553.238281 287.492188 C 553.835938 287.90625 554.355469 288.398438 554.800781 288.976562 C 555.242188 289.550781 555.585938 290.179688 555.832031 290.863281 C 556.179688 291.816406 556.347656 292.796875 556.339844 293.8125 C 556.351562 294.839844 556.171875 295.835938 555.808594 296.800781 Z M 551.125 291.246094 C 550.613281 290.496094 549.9375 290.121094 549.085938 290.121094 C 548.183594 290.121094 547.503906 290.488281 547.050781 291.226562 C 546.601562 291.960938 546.375 292.820312 546.375 293.8125 C 546.375 294.828125 546.628906 295.710938 547.136719 296.460938 C 547.644531 297.210938 548.324219 297.585938 549.171875 297.585938 C 550.078125 297.585938 550.757812 297.21875 551.207031 296.484375 C 551.660156 295.75 551.886719 294.886719 551.886719 293.898438 C 551.886719 292.878906 551.632812 291.996094 551.125 291.246094 Z M 551.125 291.246094 " fill-opacity="1" fill-rule="nonzero"/><g clip-path="url(#54fd94c59d)"><path fill="#411361" d="M 567.824219 188.261719 C 560.839844 184.210938 553.503906 180.945312 545.820312 178.46875 C 538.136719 175.988281 530.277344 174.351562 522.242188 173.558594 C 516.183594 172.953125 510.933594 177.734375 510.933594 183.820312 L 510.933594 183.914062 C 510.9375 184.550781 510.996094 185.179688 511.113281 185.804688 C 511.230469 186.429688 511.40625 187.039062 511.632812 187.628906 C 511.863281 188.222656 512.148438 188.789062 512.480469 189.328125 C 512.816406 189.871094 513.199219 190.375 513.625 190.847656 C 514.054688 191.316406 514.519531 191.742188 515.027344 192.125 C 515.535156 192.511719 516.070312 192.84375 516.640625 193.128906 C 517.210938 193.414062 517.800781 193.644531 518.410156 193.820312 C 519.019531 193.996094 519.644531 194.113281 520.277344 194.175781 C 529.585938 195.097656 538.546875 197.382812 547.160156 201.027344 C 548.90625 201.769531 550.628906 202.558594 552.328125 203.402344 C 554.027344 204.246094 555.699219 205.144531 557.339844 206.089844 C 558.984375 207.035156 560.597656 208.03125 562.183594 209.074219 C 563.765625 210.121094 565.3125 211.210938 566.832031 212.351562 C 568.347656 213.492188 569.828125 214.675781 571.269531 215.90625 C 572.714844 217.136719 574.117188 218.410156 575.484375 219.726562 C 576.851562 221.042969 578.175781 222.398438 579.457031 223.792969 C 580.738281 225.191406 581.980469 226.625 583.171875 228.097656 C 584.367188 229.570312 585.519531 231.078125 586.621094 232.621094 C 587.722656 234.164062 588.777344 235.738281 589.785156 237.347656 C 590.792969 238.953125 591.746094 240.589844 592.652344 242.253906 C 593.558594 243.921875 594.414062 245.613281 595.21875 247.332031 C 596.019531 249.046875 596.769531 250.789062 597.46875 252.554688 C 598.164062 254.316406 598.804688 256.101562 599.394531 257.902344 C 599.980469 259.707031 600.511719 261.523438 600.988281 263.359375 C 601.464844 265.195312 601.882812 267.042969 602.246094 268.90625 C 602.609375 270.765625 602.914062 272.636719 603.164062 274.515625 C 603.414062 276.398438 603.605469 278.28125 603.738281 280.171875 C 603.871094 282.066406 603.945312 283.957031 603.964844 285.855469 C 603.980469 287.75 603.941406 289.644531 603.84375 291.539062 C 603.742188 293.433594 603.585938 295.320312 603.375 297.207031 C 603.160156 299.089844 602.886719 300.964844 602.558594 302.832031 C 602.230469 304.699219 601.84375 306.554688 601.402344 308.398438 C 600.960938 310.242188 600.464844 312.074219 599.910156 313.886719 C 599.355469 315.699219 598.746094 317.496094 598.082031 319.269531 C 597.417969 321.046875 596.699219 322.800781 595.929688 324.535156 C 595.160156 326.265625 594.335938 327.972656 593.460938 329.65625 C 592.585938 331.335938 591.65625 332.992188 590.679688 334.617188 C 589.703125 336.242188 588.679688 337.835938 587.605469 339.398438 C 586.53125 340.960938 585.410156 342.488281 584.242188 343.984375 C 583.074219 345.480469 581.863281 346.9375 580.605469 348.355469 C 579.347656 349.777344 578.050781 351.15625 576.707031 352.496094 C 575.367188 353.839844 573.984375 355.136719 572.566406 356.394531 C 571.144531 357.648438 569.6875 358.863281 568.191406 360.027344 C 566.695312 361.195312 565.167969 362.316406 563.605469 363.390625 C 562.039062 364.464844 560.445312 365.488281 558.820312 366.464844 C 557.195312 367.441406 555.539062 368.367188 553.855469 369.242188 C 552.175781 370.117188 550.464844 370.941406 548.734375 371.710938 C 547 372.484375 545.246094 373.199219 543.46875 373.863281 C 541.691406 374.527344 539.894531 375.136719 538.082031 375.691406 C 536.265625 376.246094 534.4375 376.742188 532.59375 377.183594 C 530.75 377.625 528.890625 378.011719 527.023438 378.339844 C 525.15625 378.667969 523.28125 378.941406 521.394531 379.15625 C 519.511719 379.367188 517.621094 379.523438 515.726562 379.625 C 513.832031 379.722656 511.9375 379.761719 510.039062 379.746094 C 508.140625 379.726562 506.246094 379.652344 504.355469 379.519531 C 502.464844 379.386719 500.578125 379.195312 498.695312 378.945312 C 496.816406 378.699219 494.945312 378.390625 493.082031 378.03125 C 491.222656 377.667969 489.371094 377.246094 487.535156 376.769531 C 485.699219 376.296875 483.878906 375.765625 482.074219 375.175781 C 480.273438 374.589844 478.488281 373.949219 476.722656 373.253906 C 474.960938 372.554688 473.21875 371.808594 471.5 371.003906 C 469.78125 370.203125 468.089844 369.347656 466.421875 368.441406 C 464.753906 367.535156 463.117188 366.578125 461.511719 365.574219 C 459.902344 364.566406 458.328125 363.511719 456.785156 362.410156 C 455.238281 361.308594 453.730469 360.160156 452.257812 358.964844 C 450.785156 357.769531 449.351562 356.53125 447.953125 355.25 C 446.554688 353.96875 445.199219 352.644531 443.882812 351.28125 C 442.566406 349.914062 441.292969 348.511719 440.0625 347.066406 C 438.832031 345.625 437.644531 344.144531 436.503906 342.628906 C 435.363281 341.113281 434.273438 339.566406 433.226562 337.984375 C 432.183594 336.402344 431.1875 334.789062 430.238281 333.144531 C 429.292969 331.5 428.398438 329.832031 427.550781 328.132812 C 426.707031 326.4375 425.914062 324.714844 425.175781 322.96875 C 421.527344 314.355469 419.238281 305.394531 418.320312 296.085938 C 418.257812 295.453125 418.140625 294.832031 417.964844 294.222656 C 417.789062 293.609375 417.558594 293.023438 417.273438 292.453125 C 416.988281 291.886719 416.65625 291.347656 416.273438 290.84375 C 415.886719 290.335938 415.460938 289.871094 414.992188 289.441406 C 414.519531 289.015625 414.015625 288.636719 413.476562 288.300781 C 412.933594 287.964844 412.367188 287.683594 411.777344 287.457031 C 411.183594 287.226562 410.574219 287.050781 409.953125 286.933594 C 409.328125 286.816406 408.699219 286.757812 408.0625 286.757812 L 407.949219 286.757812 C 401.871094 286.757812 397.09375 291.988281 397.691406 298.03125 C 403.21875 353.914062 449.367188 398.039062 506.128906 400.40625 C 572.535156 403.179688 627.34375 348.4375 624.636719 282.0625 C 623.003906 242.003906 600.546875 207.21875 567.824219 188.261719 Z M 567.824219 188.261719 " fill-opacity="1" fill-rule="nonzero"/></g></svg>