<svg xmlns="http://www.w3.org/2000/svg" xmlns:xlink="http://www.w3.org/1999/xlink" width="1366" zoomAndPan="magnify" viewBox="0 0 1024.5 576" height="768" preserveAspectRatio="xMidYMid meet" version="1.0"><defs><clipPath id="7c033a1c36"><path d="M 397.050781 172.941406 L 627.300781 172.941406 L 627.300781 403.191406 L 397.050781 403.191406 Z M 397.050781 172.941406 " clip-rule="nonzero"/></clipPath></defs><g clip-path="url(#7c033a1c36)"><path fill="#411361" d="M 569.71875 188.410156 C 565.367188 185.886719 560.871094 183.660156 556.226562 181.726562 C 551.582031 179.796875 546.828125 178.179688 541.972656 176.875 C 537.113281 175.570312 532.191406 174.59375 527.203125 173.9375 C 522.214844 173.28125 517.207031 172.957031 512.175781 172.964844 C 448.699219 172.964844 397.0625 224.605469 397.0625 288.078125 C 397.0625 351.550781 448.699219 403.191406 512.175781 403.191406 C 575.648438 403.191406 627.289062 351.550781 627.289062 288.078125 C 627.289062 245.550781 604.109375 208.339844 569.71875 188.410156 Z M 578.75 354.65625 C 577.386719 356.011719 575.988281 357.328125 574.542969 358.601562 C 573.101562 359.871094 571.625 361.097656 570.105469 362.277344 C 568.589844 363.460938 567.035156 364.59375 565.449219 365.675781 C 563.863281 366.761719 562.246094 367.796875 560.59375 368.785156 C 558.945312 369.769531 557.265625 370.707031 555.558594 371.589844 C 553.847656 372.472656 552.117188 373.300781 550.355469 374.078125 C 548.597656 374.851562 546.816406 375.574219 545.011719 376.242188 C 543.210938 376.910156 541.386719 377.519531 539.546875 378.074219 C 537.707031 378.628906 535.851562 379.128906 533.980469 379.566406 C 532.109375 380.007812 530.226562 380.390625 528.332031 380.71875 C 526.4375 381.042969 524.53125 381.308594 522.621094 381.519531 C 520.710938 381.726562 518.792969 381.875 516.875 381.964844 C 514.953125 382.058594 513.03125 382.089844 511.109375 382.0625 C 509.1875 382.035156 507.269531 381.945312 505.351562 381.800781 C 503.433594 381.65625 501.523438 381.453125 499.617188 381.1875 C 497.714844 380.925781 495.820312 380.605469 493.933594 380.226562 C 492.050781 379.847656 490.179688 379.410156 488.320312 378.917969 C 486.460938 378.421875 484.621094 377.871094 482.796875 377.265625 C 480.972656 376.65625 479.167969 375.996094 477.386719 375.277344 C 475.601562 374.558594 473.84375 373.785156 472.105469 372.960938 C 470.371094 372.132812 468.664062 371.253906 466.980469 370.324219 C 465.296875 369.390625 463.648438 368.410156 462.023438 367.378906 C 460.402344 366.34375 458.816406 365.265625 457.257812 364.132812 C 455.703125 363.003906 454.183594 361.828125 452.703125 360.601562 C 451.21875 359.378906 449.777344 358.109375 448.371094 356.796875 C 446.964844 355.488281 445.601562 354.132812 444.28125 352.734375 C 442.957031 351.339844 441.679688 349.90625 440.449219 348.429688 C 439.214844 346.957031 438.027344 345.445312 436.886719 343.898438 C 435.746094 342.347656 434.652344 340.769531 433.609375 339.152344 C 432.566406 337.539062 431.574219 335.894531 430.628906 334.21875 C 429.6875 332.542969 428.796875 330.839844 427.960938 329.109375 C 427.121094 327.378906 426.335938 325.625 425.609375 323.847656 C 424.878906 322.066406 424.203125 320.269531 423.582031 318.449219 C 422.964844 316.628906 422.398438 314.792969 421.894531 312.9375 C 421.386719 311.082031 420.9375 309.214844 420.546875 307.332031 C 420.152344 305.449219 419.820312 303.558594 419.542969 301.652344 C 419.269531 299.75 419.050781 297.84375 418.894531 295.925781 C 418.734375 294.011719 418.636719 292.089844 418.59375 290.167969 C 418.554688 288.246094 418.574219 286.324219 418.652344 284.40625 C 418.730469 282.484375 418.867188 280.566406 419.0625 278.652344 C 419.257812 276.742188 419.511719 274.835938 419.824219 272.941406 C 420.136719 271.042969 420.503906 269.15625 420.933594 267.28125 C 421.363281 265.410156 421.847656 263.550781 422.390625 261.703125 C 422.933594 259.859375 423.53125 258.035156 424.1875 256.226562 C 424.839844 254.417969 425.550781 252.632812 426.3125 250.871094 C 427.078125 249.105469 427.898438 247.367188 428.769531 245.652344 C 429.640625 243.9375 430.5625 242.253906 431.535156 240.597656 C 432.511719 238.9375 433.535156 237.3125 434.609375 235.71875 C 435.6875 234.125 436.808594 232.566406 437.980469 231.039062 C 439.148438 229.515625 440.367188 228.027344 441.628906 226.578125 C 442.890625 225.125 444.195312 223.714844 445.542969 222.347656 C 446.890625 220.976562 448.28125 219.648438 449.710938 218.363281 C 451.140625 217.078125 452.609375 215.839844 454.117188 214.644531 C 455.621094 213.449219 457.164062 212.300781 458.742188 211.203125 C 460.316406 210.101562 461.925781 209.050781 463.566406 208.050781 C 465.210938 207.050781 466.878906 206.101562 468.578125 205.203125 C 470.28125 204.304688 472.003906 203.457031 473.757812 202.664062 C 475.507812 201.871094 477.28125 201.136719 479.078125 200.453125 C 480.875 199.769531 482.691406 199.140625 484.527344 198.570312 C 486.363281 197.996094 488.214844 197.480469 490.082031 197.023438 C 491.949219 196.566406 493.828125 196.164062 495.722656 195.824219 C 497.613281 195.480469 499.511719 195.195312 501.421875 194.96875 C 503.332031 194.746094 505.246094 194.578125 507.164062 194.46875 C 509.085938 194.359375 511.003906 194.3125 512.929688 194.320312 C 514.851562 194.332031 516.769531 194.398438 518.691406 194.527344 C 520.609375 194.65625 522.519531 194.84375 524.425781 195.085938 C 526.335938 195.332031 528.230469 195.636719 530.121094 196 C 532.007812 196.359375 533.882812 196.78125 535.746094 197.257812 C 537.609375 197.734375 539.453125 198.269531 541.285156 198.859375 C 543.113281 199.449219 544.921875 200.09375 546.710938 200.796875 C 548.503906 201.5 550.269531 202.253906 552.011719 203.0625 C 553.757812 203.875 555.472656 204.738281 557.164062 205.652344 C 558.855469 206.570312 560.515625 207.535156 562.144531 208.554688 C 563.777344 209.570312 565.375 210.636719 566.941406 211.753906 C 568.507812 212.871094 570.035156 214.03125 571.53125 215.242188 C 573.023438 216.453125 574.480469 217.707031 575.898438 219.007812 C 577.3125 220.304688 578.6875 221.648438 580.023438 223.03125 C 581.359375 224.414062 582.648438 225.839844 583.894531 227.300781 C 585.144531 228.765625 586.34375 230.265625 587.5 231.804688 C 588.652344 233.339844 589.761719 234.910156 590.820312 236.515625 C 591.878906 238.121094 592.886719 239.757812 593.84375 241.425781 C 594.800781 243.089844 595.707031 244.785156 596.5625 246.507812 C 597.414062 248.230469 598.214844 249.976562 598.960938 251.75 C 599.707031 253.519531 600.398438 255.3125 601.035156 257.128906 C 601.671875 258.941406 602.25 260.773438 602.773438 262.625 C 603.296875 264.472656 603.765625 266.339844 604.175781 268.21875 C 604.582031 270.09375 604.933594 271.984375 605.226562 273.886719 C 605.519531 275.785156 605.753906 277.691406 605.929688 279.605469 C 606.105469 281.519531 606.222656 283.4375 606.28125 285.359375 C 606.339844 287.28125 606.339844 289.203125 606.277344 291.125 C 606.21875 293.046875 606.101562 294.964844 605.921875 296.878906 C 605.746094 298.792969 605.507812 300.699219 605.214844 302.601562 C 604.917969 304.5 604.566406 306.390625 604.152344 308.269531 C 603.742188 310.144531 603.273438 312.007812 602.75 313.859375 C 602.222656 315.707031 601.640625 317.539062 601.003906 319.351562 C 600.367188 321.167969 599.671875 322.957031 598.925781 324.730469 C 596.5625 330.324219 593.683594 335.636719 590.289062 340.667969 C 586.894531 345.703125 583.046875 350.363281 578.75 354.652344 Z M 578.75 354.65625 " fill-opacity="1" fill-rule="nonzero"/></g><path fill="#411361" d="M 584.011719 257.726562 C 583.394531 256.253906 582.726562 254.800781 582.019531 253.367188 C 581.308594 251.933594 580.554688 250.527344 579.761719 249.140625 C 578.964844 247.753906 578.125 246.390625 577.246094 245.054688 C 576.367188 243.722656 575.449219 242.414062 574.488281 241.136719 C 573.527344 239.855469 572.53125 238.609375 571.496094 237.390625 C 570.457031 236.171875 569.386719 234.988281 568.277344 233.835938 C 567.167969 232.683594 566.027344 231.566406 564.847656 230.484375 C 563.671875 229.402344 562.460938 228.359375 561.222656 227.351562 C 559.980469 226.34375 558.707031 225.375 557.40625 224.445312 C 556.105469 223.515625 554.777344 222.625 553.425781 221.777344 C 552.070312 220.929688 550.6875 220.125 549.285156 219.359375 C 547.878906 218.597656 546.453125 217.875 545.003906 217.199219 C 543.554688 216.523438 542.085938 215.890625 540.597656 215.304688 C 539.113281 214.71875 537.609375 214.179688 536.085938 213.6875 C 534.566406 213.191406 533.03125 212.746094 531.484375 212.34375 C 529.9375 211.945312 528.378906 211.59375 526.808594 211.289062 C 525.238281 210.984375 523.660156 210.730469 522.074219 210.519531 C 520.492188 210.3125 518.898438 210.15625 517.304688 210.042969 C 515.710938 209.933594 514.113281 209.875 512.515625 209.863281 C 510.914062 209.847656 509.316406 209.886719 507.722656 209.972656 C 506.125 210.058594 504.53125 210.191406 502.945312 210.375 C 501.355469 210.558594 499.773438 210.792969 498.199219 211.070312 C 496.625 211.351562 495.0625 211.679688 493.507812 212.058594 C 491.953125 212.433594 490.414062 212.855469 488.886719 213.328125 C 487.359375 213.796875 485.847656 214.316406 484.351562 214.878906 C 482.855469 215.441406 481.375 216.050781 479.917969 216.707031 C 478.457031 217.359375 477.019531 218.058594 475.605469 218.800781 C 474.1875 219.542969 472.796875 220.328125 471.429688 221.15625 C 470.0625 221.980469 468.71875 222.851562 467.40625 223.761719 C 466.089844 224.671875 464.804688 225.621094 463.546875 226.609375 C 462.292969 227.597656 461.066406 228.625 459.871094 229.6875 C 458.679688 230.75 457.519531 231.851562 456.394531 232.984375 C 455.265625 234.121094 454.175781 235.289062 453.121094 236.492188 C 452.066406 237.691406 451.050781 238.925781 450.074219 240.191406 C 449.09375 241.453125 448.152344 242.746094 447.253906 244.070312 C 446.355469 245.390625 445.496094 246.738281 444.679688 248.113281 C 443.863281 249.488281 443.089844 250.886719 442.359375 252.308594 C 441.625 253.730469 440.9375 255.171875 440.296875 256.636719 C 439.652344 258.097656 439.054688 259.582031 438.503906 261.082031 C 437.953125 262.582031 437.449219 264.097656 436.988281 265.628906 C 436.53125 267.164062 436.117188 268.707031 435.753906 270.261719 C 435.390625 271.820312 435.074219 273.386719 434.804688 274.960938 C 434.539062 276.539062 434.316406 278.121094 434.144531 279.710938 C 433.976562 281.300781 433.851562 282.894531 433.78125 284.492188 C 433.707031 286.089844 433.683594 287.6875 433.707031 289.285156 C 433.730469 290.882812 433.804688 292.480469 433.925781 294.074219 C 434.050781 295.667969 434.222656 297.257812 434.441406 298.839844 C 434.660156 300.425781 434.929688 302 435.246094 303.566406 C 435.5625 305.132812 435.925781 306.691406 436.339844 308.234375 C 436.75 309.78125 437.207031 311.3125 437.714844 312.828125 C 438.21875 314.34375 438.773438 315.84375 439.371094 317.328125 C 439.96875 318.808594 440.609375 320.273438 441.296875 321.714844 C 441.984375 323.160156 442.714844 324.582031 443.492188 325.980469 C 444.265625 327.378906 445.082031 328.753906 445.941406 330.101562 C 446.800781 331.449219 447.699219 332.769531 448.640625 334.0625 C 449.578125 335.355469 450.558594 336.621094 451.574219 337.855469 C 452.59375 339.085938 453.644531 340.289062 454.738281 341.457031 C 455.828125 342.625 456.953125 343.761719 458.113281 344.859375 C 459.273438 345.960938 460.46875 347.023438 461.695312 348.050781 C 462.917969 349.078125 464.175781 350.0625 465.460938 351.015625 C 466.75 351.964844 468.0625 352.871094 469.40625 353.742188 C 470.746094 354.609375 472.113281 355.4375 473.507812 356.222656 C 474.898438 357.007812 476.316406 357.75 477.753906 358.449219 C 479.191406 359.148438 480.648438 359.800781 482.128906 360.410156 C 483.605469 361.019531 485.101562 361.582031 486.613281 362.097656 C 488.128906 362.617188 489.65625 363.085938 491.195312 363.507812 C 492.738281 363.933594 494.292969 364.308594 495.855469 364.636719 C 497.421875 364.964844 498.996094 365.246094 500.578125 365.476562 C 502.160156 365.710938 503.746094 365.894531 505.339844 366.027344 C 506.933594 366.160156 508.527344 366.246094 510.125 366.285156 C 511.726562 366.320312 513.324219 366.308594 514.921875 366.246094 C 516.519531 366.1875 518.113281 366.074219 519.703125 365.917969 C 521.292969 365.757812 522.878906 365.550781 524.457031 365.292969 C 526.035156 365.035156 527.605469 364.734375 529.164062 364.378906 C 530.722656 364.027344 532.269531 363.628906 533.804688 363.179688 C 535.339844 362.734375 536.859375 362.238281 538.363281 361.699219 C 539.871094 361.160156 541.355469 360.574219 542.824219 359.941406 C 544.292969 359.308594 545.742188 358.632812 547.167969 357.914062 C 548.597656 357.191406 550 356.429688 551.378906 355.621094 C 552.761719 354.816406 554.117188 353.96875 555.445312 353.078125 C 556.773438 352.1875 558.074219 351.257812 559.34375 350.289062 C 560.617188 349.320312 561.855469 348.3125 563.066406 347.265625 C 564.277344 346.222656 565.453125 345.140625 566.59375 344.023438 C 567.738281 342.90625 568.847656 341.753906 569.917969 340.566406 C 570.992188 339.382812 572.027344 338.164062 573.027344 336.917969 C 574.023438 335.667969 574.984375 334.390625 575.902344 333.082031 C 576.824219 331.773438 577.703125 330.4375 578.539062 329.078125 C 579.378906 327.714844 580.171875 326.328125 580.925781 324.917969 C 581.679688 323.507812 582.386719 322.078125 583.054688 320.621094 C 583.71875 319.167969 584.339844 317.695312 584.914062 316.203125 C 585.488281 314.710938 586.015625 313.203125 586.5 311.679688 C 586.980469 310.15625 587.417969 308.617188 587.804688 307.066406 C 588.191406 305.515625 588.53125 303.953125 588.824219 302.382812 C 589.117188 300.808594 589.359375 299.230469 589.554688 297.644531 C 589.75 296.058594 589.898438 294.464844 589.996094 292.871094 C 590.09375 291.273438 590.144531 289.675781 590.144531 288.078125 C 590.148438 282.863281 589.636719 277.703125 588.605469 272.59375 C 587.574219 267.484375 586.042969 262.527344 584.011719 257.726562 Z M 584.011719 257.726562 " fill-opacity="1" fill-rule="nonzero"/><path fill="#ffffff" d="M 470.027344 274.59375 L 473.890625 274.59375 L 473.890625 300.519531 L 468.300781 300.519531 L 468.300781 280.328125 L 463.8125 281.433594 L 462.636719 276.800781 Z M 470.027344 274.59375 " fill-opacity="1" fill-rule="nonzero"/><path fill="#ffffff" d="M 501.308594 292.878906 C 500.792969 294.433594 500.015625 295.84375 498.972656 297.105469 C 497.96875 298.3125 496.761719 299.253906 495.347656 299.9375 C 493.867188 300.644531 492.304688 300.988281 490.660156 300.96875 C 489.019531 300.988281 487.457031 300.652344 485.972656 299.957031 C 484.558594 299.285156 483.359375 298.34375 482.367188 297.136719 C 481.339844 295.875 480.570312 294.472656 480.070312 292.925781 C 479.527344 291.222656 479.257812 289.472656 479.257812 287.683594 C 479.261719 285.894531 479.539062 284.148438 480.085938 282.445312 C 480.597656 280.882812 481.375 279.464844 482.421875 278.195312 C 483.425781 276.992188 484.632812 276.046875 486.042969 275.363281 C 487.527344 274.65625 489.089844 274.3125 490.734375 274.335938 C 492.375 274.3125 493.9375 274.652344 495.421875 275.347656 C 496.835938 276.019531 498.035156 276.957031 499.027344 278.167969 C 500.058594 279.433594 500.824219 280.839844 501.324219 282.394531 C 501.878906 284.09375 502.148438 285.832031 502.136719 287.617188 C 502.152344 289.417969 501.875 291.167969 501.308594 292.878906 Z M 495.914062 284.417969 C 495.675781 283.484375 495.296875 282.613281 494.773438 281.808594 C 494.308594 281.09375 493.714844 280.519531 492.988281 280.078125 C 492.269531 279.664062 491.496094 279.457031 490.664062 279.453125 C 489.835938 279.449219 489.058594 279.652344 488.335938 280.058594 C 487.621094 280.492188 487.03125 281.054688 486.570312 281.75 C 486.046875 282.550781 485.671875 283.414062 485.449219 284.34375 C 485.183594 285.417969 485.054688 286.511719 485.0625 287.617188 C 485.054688 288.726562 485.191406 289.816406 485.46875 290.890625 C 485.703125 291.824219 486.085938 292.695312 486.609375 293.503906 C 487.070312 294.214844 487.664062 294.789062 488.390625 295.230469 C 489.113281 295.644531 489.886719 295.851562 490.714844 295.855469 C 491.546875 295.859375 492.320312 295.65625 493.042969 295.25 C 493.765625 294.8125 494.355469 294.242188 494.808594 293.53125 C 495.328125 292.730469 495.703125 291.867188 495.933594 290.941406 C 496.199219 289.871094 496.328125 288.785156 496.316406 287.683594 C 496.328125 286.578125 496.195312 285.488281 495.917969 284.417969 Z M 495.914062 284.417969 " fill-opacity="1" fill-rule="nonzero"/><path fill="#ffffff" d="M 528.15625 292.878906 C 527.640625 294.433594 526.867188 295.84375 525.824219 297.105469 C 524.820312 298.3125 523.613281 299.253906 522.203125 299.9375 C 520.71875 300.644531 519.15625 300.988281 517.515625 300.96875 C 515.875 300.988281 514.308594 300.652344 512.824219 299.957031 C 511.414062 299.285156 510.210938 298.34375 509.21875 297.136719 C 508.191406 295.875 507.425781 294.472656 506.921875 292.925781 C 506.378906 291.222656 506.109375 289.472656 506.113281 287.683594 C 506.117188 285.894531 506.390625 284.148438 506.941406 282.445312 C 507.449219 280.882812 508.226562 279.464844 509.269531 278.195312 C 510.273438 276.992188 511.480469 276.046875 512.890625 275.363281 C 514.375 274.65625 515.9375 274.3125 517.582031 274.335938 C 519.222656 274.3125 520.785156 274.652344 522.269531 275.347656 C 523.679688 276.019531 524.882812 276.957031 525.875 278.167969 C 526.90625 279.433594 527.671875 280.839844 528.171875 282.394531 C 528.726562 284.09375 528.996094 285.832031 528.980469 287.617188 C 529 289.417969 528.722656 291.167969 528.15625 292.878906 Z M 522.765625 284.417969 C 522.53125 283.484375 522.148438 282.613281 521.625 281.808594 C 521.164062 281.09375 520.570312 280.519531 519.84375 280.078125 C 519.121094 279.664062 518.347656 279.453125 517.515625 279.453125 C 516.683594 279.449219 515.90625 279.652344 515.183594 280.058594 C 514.46875 280.492188 513.878906 281.054688 513.417969 281.75 C 512.894531 282.550781 512.519531 283.414062 512.296875 284.34375 C 512.03125 285.417969 511.902344 286.511719 511.910156 287.617188 C 511.902344 288.726562 512.035156 289.816406 512.316406 290.890625 C 512.550781 291.824219 512.933594 292.695312 513.457031 293.503906 C 513.917969 294.214844 514.511719 294.789062 515.238281 295.230469 C 515.960938 295.644531 516.734375 295.855469 517.566406 295.859375 C 518.398438 295.859375 519.175781 295.65625 519.898438 295.25 C 520.617188 294.8125 521.207031 294.242188 521.664062 293.53125 C 522.183594 292.730469 522.558594 291.867188 522.785156 290.941406 C 523.050781 289.871094 523.179688 288.785156 523.171875 287.683594 C 523.179688 286.578125 523.046875 285.488281 522.765625 284.417969 Z M 522.765625 284.417969 " fill-opacity="1" fill-rule="nonzero"/><path fill="#ffffff" d="M 544.667969 283.628906 C 544.371094 284.410156 543.945312 285.105469 543.378906 285.722656 C 542.816406 286.335938 542.15625 286.808594 541.394531 287.140625 C 540.578125 287.492188 539.726562 287.664062 538.839844 287.65625 C 538.210938 287.664062 537.59375 287.578125 536.992188 287.394531 C 536.390625 287.214844 535.828125 286.945312 535.3125 286.585938 C 534.792969 286.226562 534.34375 285.800781 533.960938 285.300781 C 533.574219 284.800781 533.277344 284.257812 533.066406 283.664062 C 532.765625 282.839844 532.617188 281.988281 532.625 281.109375 C 532.617188 280.222656 532.769531 279.363281 533.082031 278.535156 C 533.375 277.746094 533.804688 277.039062 534.371094 276.417969 C 534.933594 275.808594 535.59375 275.335938 536.355469 275.003906 C 537.171875 274.648438 538.023438 274.476562 538.910156 274.488281 C 539.542969 274.476562 540.15625 274.5625 540.757812 274.746094 C 541.363281 274.929688 541.921875 275.199219 542.4375 275.558594 C 542.957031 275.914062 543.40625 276.34375 543.792969 276.84375 C 544.175781 277.339844 544.472656 277.886719 544.6875 278.480469 C 544.988281 279.304688 545.132812 280.15625 545.128906 281.035156 C 545.136719 281.925781 544.984375 282.792969 544.667969 283.628906 Z M 539.574219 300.527344 L 535.199219 300.527344 L 553.992188 274.78125 L 558.367188 274.78125 Z M 540.605469 278.808594 C 540.164062 278.160156 539.574219 277.832031 538.839844 277.828125 C 538.054688 277.828125 537.464844 278.148438 537.074219 278.785156 C 536.660156 279.476562 536.464844 280.222656 536.484375 281.027344 C 536.464844 281.863281 536.683594 282.628906 537.148438 283.328125 C 537.589844 283.980469 538.175781 284.308594 538.910156 284.308594 C 539.695312 284.308594 540.285156 283.988281 540.675781 283.351562 C 541.089844 282.660156 541.285156 281.914062 541.265625 281.109375 C 541.285156 280.273438 541.066406 279.507812 540.605469 278.808594 Z M 560.480469 296.792969 C 560.1875 297.574219 559.757812 298.273438 559.195312 298.890625 C 558.632812 299.5 557.96875 299.972656 557.207031 300.304688 C 556.394531 300.660156 555.542969 300.832031 554.652344 300.820312 C 554.023438 300.832031 553.40625 300.746094 552.804688 300.5625 C 552.203125 300.378906 551.644531 300.109375 551.125 299.753906 C 550.609375 299.394531 550.15625 298.964844 549.773438 298.46875 C 549.390625 297.96875 549.089844 297.421875 548.878906 296.832031 C 548.578125 296.003906 548.429688 295.152344 548.4375 294.273438 C 548.433594 293.386719 548.585938 292.53125 548.898438 291.699219 C 549.1875 290.910156 549.617188 290.207031 550.183594 289.585938 C 550.746094 288.976562 551.410156 288.503906 552.171875 288.167969 C 552.984375 287.816406 553.835938 287.644531 554.726562 287.65625 C 555.355469 287.644531 555.972656 287.730469 556.574219 287.914062 C 557.175781 288.09375 557.734375 288.367188 558.253906 288.722656 C 558.769531 289.082031 559.222656 289.507812 559.605469 290.007812 C 559.988281 290.507812 560.289062 291.050781 560.5 291.644531 C 560.800781 292.46875 560.949219 293.324219 560.941406 294.199219 C 560.949219 295.09375 560.796875 295.957031 560.480469 296.792969 Z M 556.417969 291.976562 C 555.976562 291.328125 555.386719 291 554.652344 290.996094 C 553.867188 290.996094 553.28125 291.3125 552.886719 291.953125 C 552.476562 292.644531 552.28125 293.390625 552.300781 294.195312 C 552.277344 295.03125 552.5 295.796875 552.960938 296.492188 C 553.402344 297.148438 553.992188 297.472656 554.726562 297.472656 C 555.511719 297.472656 556.097656 297.15625 556.492188 296.519531 C 556.902344 295.828125 557.097656 295.078125 557.078125 294.273438 C 557.101562 293.4375 556.878906 292.671875 556.417969 291.976562 Z M 556.417969 291.976562 " fill-opacity="1" fill-rule="nonzero"/></svg>